<?xml version="1.0" encoding="UTF-8"?>
<svg version="1.1" xmlns="http://www.w3.org/2000/svg" width="443" height="196">
<path d="M0 0 C146.19 0 292.38 0 443 0 C443 64.68 443 129.36 443 196 C296.81 196 150.62 196 0 196 C0 131.32 0 66.64 0 0 Z " fill="#FEFEFE" transform="translate(0,0)"/>
<path d="M0 0 C61.05 0 122.1 0 185 0 C181.78843087 8.02892281 177.19955573 15.44079968 173 23 C107.165 23.495 107.165 23.495 40 24 C46.93 35.88 46.93 35.88 54 48 C54 48.66 54 49.32 54 50 C87.66 50 121.32 50 156 50 C154.55175112 54.34474663 153.41967407 57.30399545 151.1640625 61.09765625 C150.31920288 62.53020752 150.31920288 62.53020752 149.45727539 63.99169922 C148.55029907 65.51174561 148.55029907 65.51174561 147.625 67.0625 C146.3442503 69.23259992 145.06431594 71.40318122 143.78515625 73.57421875 C143.14465332 74.65880371 142.50415039 75.74338867 141.84423828 76.86083984 C139.21083894 81.3432662 136.63228976 85.85589639 134.0625 90.375 C124.60846272 106.96715268 115.05366941 123.50131599 105.4375 140 C104.87820801 140.96010986 104.31891602 141.92021973 103.74267578 142.90942383 C100.20680897 148.96703123 96.62269793 154.99392673 93 161 C89.56141699 156.99350622 87.10980556 152.80721097 84.625 148.1875 C79.39402879 138.6152535 73.90891497 129.20011823 68.39453125 119.7890625 C67.84490723 118.8496582 67.2952832 117.91025391 66.72900391 116.94238281 C65.49886707 114.84896159 64.26070097 112.76024959 63.01708984 110.67480469 C62.37594238 109.59360352 61.73479492 108.51240234 61.07421875 107.3984375 C60.48600342 106.41278809 59.89778809 105.42713867 59.29174805 104.41162109 C58 102 58 102 58 100 C80.56190081 97.76614843 80.56190081 97.76614843 86.11474609 101.37402344 C89.52154457 105.04953585 91.38272917 109.30392471 93 114 C93.41507812 113.2678125 93.83015625 112.535625 94.2578125 111.78125 C99.54982968 102.48147085 104.93382179 93.23676276 110.33837891 84.00195312 C110.9266748 82.99583984 111.5149707 81.98972656 112.12109375 80.953125 C112.91664673 79.59429199 112.91664673 79.59429199 113.72827148 78.20800781 C114.5238425 76.82671691 115.28713286 75.42573428 116 74 C115.09068726 74.01633987 114.18137451 74.03267975 113.24450684 74.04951477 C104.65245239 74.19230219 96.0625666 74.27219354 87.46929169 74.28240681 C83.05153533 74.28985045 78.63669257 74.32113901 74.21972656 74.40795898 C69.95222192 74.49094674 65.68868075 74.5099411 61.42048645 74.48558617 C59.79691696 74.48737088 58.17320198 74.5117704 56.55033875 74.55968666 C51.41529287 74.70240655 46.90946158 74.61658882 42 73 C38.16584638 69.06229426 36.2195776 65.03641651 34 60 C32.85548949 57.94212866 31.6942755 55.89334754 30.5078125 53.859375 C29.37794601 51.82417098 28.25037791 49.78768944 27.125 47.75 C21.55974308 37.74384058 15.85414269 27.83905157 10 18 C8.12150647 14.83539002 6.24746766 11.66817808 4.375 8.5 C3.93639648 7.76265625 3.49779297 7.0253125 3.04589844 6.265625 C0 1.11291868 0 1.11291868 0 0 Z " fill="#EA4336" transform="translate(128,0)"/>
<path d="M0 0 C2.81784037 2.5083512 4.45723723 5.29922938 6.30078125 8.57421875 C7.26274414 10.27215576 7.26274414 10.27215576 8.24414062 12.00439453 C8.93366807 13.23205461 9.62311955 14.45975737 10.3125 15.6875 C11.74379242 18.22135708 13.17840248 20.75332872 14.61328125 23.28515625 C15.1578447 24.2475119 15.1578447 24.2475119 15.71340942 25.22930908 C18.16190097 29.54834098 20.64889528 33.84287786 23.16796875 38.12109375 C23.81403076 39.2191333 24.46009277 40.31717285 25.12573242 41.44848633 C26.35832284 43.53748385 27.59407535 45.6246194 28.83325195 47.7097168 C29.38327881 48.64340088 29.93330566 49.57708496 30.5 50.5390625 C30.9846875 51.35584473 31.469375 52.17262695 31.96875 53.01416016 C33 55 33 55 33 57 C28.79313516 57.29133413 24.58885739 57.46826779 20.375 57.625 C19.18519531 57.70878906 17.99539063 57.79257812 16.76953125 57.87890625 C13.24816191 57.97726852 10.3959279 57.95556413 7 57 C4.12768649 54.00128921 2.49764352 50.85046319 1 47 C-7.08696227 59.76344845 -14.44215624 72.89973749 -22 86 C1.76 86 25.52 86 50 86 C63 109 63 109 63 110 C54.66924363 109.8903432 46.33854039 109.77737493 38.00788021 109.66066074 C34.1357243 109.60650488 30.26356121 109.55331216 26.39135742 109.50268555 C5.58410966 109.22975648 -15.20442644 108.75737663 -36 108 C-36.26280762 108.70213623 -36.52561523 109.40427246 -36.79638672 110.12768555 C-38.08939627 113.21333613 -39.61413092 116.04323208 -41.2578125 118.95703125 C-41.88300781 120.06884766 -42.50820313 121.18066406 -43.15234375 122.32617188 C-43.8098291 123.48831901 -44.46738203 124.65042791 -45.125 125.8125 C-45.79064641 126.99398189 -46.45601384 128.175621 -47.12109375 129.35742188 C-48.74465934 132.23983905 -50.37105015 135.12062331 -52 138 C-51.32708168 137.98801669 -50.65416336 137.97603338 -49.96085358 137.96368694 C-33.56844982 137.67627957 -17.17684631 137.46132321 -0.78250885 137.32644176 C7.14591585 137.25947478 15.07265654 137.16822822 23 137.01928711 C29.91165885 136.88949114 36.82209824 136.80579458 43.73494196 136.77684957 C47.39426353 136.75993278 51.05009756 136.72035866 54.70829773 136.62550926 C76.8146671 136.07488636 76.8146671 136.07488636 81.94729614 139.1768837 C85.37499513 142.53195164 86.58648581 146.53644471 88 151 C90.475 155.95 90.475 155.95 93 161 C31.95 161 -29.1 161 -92 161 C-89.36 156.38 -86.72 151.76 -84 147 C-82.09344728 143.50507423 -80.19677456 140.00675169 -78.3125 136.5 C-73.73104662 128.03478022 -68.93335215 119.7254046 -63.99731445 111.46289062 C-59.87557036 104.54134439 -55.91237835 97.54173989 -52 90.5 C-47.1031297 81.68955311 -42.06790306 72.9797837 -36.90332031 64.32397461 C-32.10324541 56.24773916 -27.52594391 48.05435221 -22.96020508 39.84399414 C-19.13783783 32.98607545 -15.19113806 26.22919109 -11.109375 19.5234375 C-7.23583248 13.11549144 -3.63734817 6.54378714 0 0 Z " fill="#119D5A" transform="translate(336,0)"/>
<path d="M0 0 C2.79563775 2.49384792 4.43253404 5.25215081 6.265625 8.50390625 C7.21985352 10.18649536 7.21985352 10.18649536 8.19335938 11.90307617 C8.87897225 13.12284702 9.56451759 14.34265583 10.25 15.5625 C11.31605379 17.44760794 12.38379063 19.33175572 13.45166016 21.21583557 C14.18626124 22.51210313 14.92030419 23.80868712 15.65380859 25.10557556 C18.20831199 29.61854789 20.78986555 34.11510168 23.390625 38.6015625 C23.73917542 39.20312668 24.08772583 39.80469086 24.44683838 40.42448425 C26.12132537 43.31312961 27.79835353 46.2002629 29.47753906 49.08618164 C30.07276367 50.11348389 30.66798828 51.14078613 31.28125 52.19921875 C31.80783203 53.10502686 32.33441406 54.01083496 32.87695312 54.9440918 C34 57 34 57 34 58 C25.09 58 16.18 58 7 58 C5.02 54.37 3.04 50.74 1 47 C-4.85800459 56.67035678 -10.5903461 66.41062938 -16.27954102 76.18115234 C-20.6759335 83.73131385 -25.08262882 91.27531313 -29.50048828 98.81292725 C-30.50846765 100.53280653 -31.51596621 102.25296758 -32.5234375 103.97314453 C-38.98704386 114.99920282 -45.49782499 125.99631921 -52 137 C-17.35 137 17.3 137 53 137 C43.88854897 120.76112217 43.88854897 120.76112217 34 105 C34 104.34 34 103.68 34 103 C56.87555679 100.91164159 56.87555679 100.91164159 63.015625 105.015625 C64.67392351 107.8093351 65.89996439 110.57735094 67.01904297 113.62353516 C69.11428865 118.69947379 72.08113961 123.3715414 74.8125 128.125 C76.02233179 130.29271018 77.22936867 132.46198263 78.43359375 134.6328125 C82.14060694 141.27869186 85.94613486 147.86464593 89.80004883 154.42626953 C93 159.89783973 93 159.89783973 93 161 C31.95 161 -29.1 161 -92 161 C-89.36 156.38 -86.72 151.76 -84 147 C-82.09344741 143.50507446 -80.19679377 140.00674109 -78.3125 136.5 C-73.70521711 127.98806513 -68.88390515 119.62887398 -63.92480469 111.31787109 C-60.044761 104.80387024 -56.27488855 98.23586403 -52.5625 91.625 C-48.13769942 83.74615953 -43.63607482 75.91840713 -39.0625 68.125 C-33.55207768 58.73268882 -28.20490859 49.25791903 -22.90966797 39.74291992 C-19.10285723 32.91991055 -15.17137518 26.19672352 -11.109375 19.5234375 C-7.23583248 13.11549144 -3.63734817 6.54378714 0 0 Z " fill="#4486F4" transform="translate(106,0)"/>
</svg>
