<?xml version="1.0" encoding="UTF-8" standalone="no"?>
<!-- Created with Inkscape (http://www.inkscape.org/) -->

<svg
   width="309.41489mm"
   height="45.508236mm"
   viewBox="0 0 309.41489 45.508236"
   version="1.1"
   id="svg1"
   xml:space="preserve"
   inkscape:version="1.3.2 (091e20e, 2023-11-25, custom)"
   sodipodi:docname="LOGO.svg"
   xmlns:inkscape="http://www.inkscape.org/namespaces/inkscape"
   xmlns:sodipodi="http://sodipodi.sourceforge.net/DTD/sodipodi-0.dtd"
   xmlns:xlink="http://www.w3.org/1999/xlink"
   xmlns="http://www.w3.org/2000/svg"
   xmlns:svg="http://www.w3.org/2000/svg"><sodipodi:namedview
     id="namedview1"
     pagecolor="#ffffff"
     bordercolor="#000000"
     borderopacity="0.25"
     inkscape:showpageshadow="2"
     inkscape:pageopacity="0.0"
     inkscape:pagecheckerboard="0"
     inkscape:deskcolor="#d1d1d1"
     inkscape:document-units="mm"
     inkscape:zoom="0.50000002"
     inkscape:cx="-193.99999"
     inkscape:cy="366.99998"
     inkscape:window-width="1920"
     inkscape:window-height="1017"
     inkscape:window-x="-8"
     inkscape:window-y="-8"
     inkscape:window-maximized="1"
     inkscape:current-layer="layer1"
     showgrid="false" /><defs
     id="defs1"><linearGradient
       id="linearGradient11"
       inkscape:collect="always"><stop
         style="stop-color:#faea00;stop-opacity:1;"
         offset="0"
         id="stop11" /><stop
         style="stop-color:#b87311;stop-opacity:1;"
         offset="1"
         id="stop12" /></linearGradient><linearGradient
       id="linearGradient3"
       inkscape:collect="always"><stop
         style="stop-color:#faeb00;stop-opacity:1;"
         offset="0"
         id="stop3" /><stop
         style="stop-color:#b97410;stop-opacity:1;"
         offset="1"
         id="stop4" /></linearGradient><linearGradient
       inkscape:collect="always"
       xlink:href="#linearGradient3"
       id="linearGradient4"
       x1="143.63612"
       y1="144.5103"
       x2="143.50269"
       y2="171.63948"
       gradientUnits="userSpaceOnUse"
       gradientTransform="matrix(1.0030216,0,0,1.0030216,-0.57383779,-38.271689)" /><linearGradient
       inkscape:collect="always"
       xlink:href="#linearGradient11"
       id="linearGradient12"
       x1="143.63612"
       y1="144.5103"
       x2="143.50269"
       y2="171.63948"
       gradientUnits="userSpaceOnUse"
       gradientTransform="matrix(1.0030216,0,0,1.0030216,-0.57383779,-38.271689)" /></defs><g
     inkscape:label="Layer 1"
     inkscape:groupmode="layer"
     id="layer1"
     transform="translate(31.580341,-106.03029)"><path
       style="font-weight:bold;font-size:34.799px;line-height:0.98;font-family:'VCR OSD Mono';-inkscape-font-specification:'VCR OSD Mono Bold';fill:url(#linearGradient4);stroke:url(#linearGradient12);stroke-width:1.81547"
       d="m 20.260126,127.88158 h 6.79668 v -1.69917 h 1.69917 v -1.68218 h 3.39834 v 3.39834 h -1.69917 v 1.68218 h -1.69917 v 1.69917 h -10.19502 v -1.71616 h -1.69917 v -1.69917 h -1.699169 v -16.9917 h 1.699169 v -1.69917 h 1.69917 v -1.69917 h 10.19502 v 1.69917 h 1.69917 v 1.69917 h 1.69917 v 3.39834 h -3.39834 v -1.69917 h -1.69917 v -1.69917 h -6.79668 v 1.69917 h -1.69917 v 13.59336 h 1.69917 z m 27.186719,-17.00869 h -6.796679 v 1.69917 h -1.69917 v 13.59336 h 1.69917 v 1.69917 h 6.813671 v -1.68218 h 1.682178 v -13.61035 h -1.69917 z m -8.495849,-1.69917 v -1.69917 h 10.195019 v 1.69917 h 1.69917 v 1.69917 h 1.69917 v 16.9917 h -1.682178 v 1.71616 h -1.716162 v 1.68218 H 38.950996 v -1.69917 h -1.69917 v -1.69917 h -1.69917 v -16.9917 h 1.69917 v -1.69917 z m 20.390039,1.69917 v 16.9917 h 6.79668 v 0.017 h 1.69917 v -1.71616 h 1.69917 v -13.59336 h -1.69917 v -1.69917 z m -3.39834,20.37305 v -23.78838 h 13.576368 v 1.69917 h 1.716162 v 1.69917 h 1.69917 v 16.9917 h -1.69917 v 1.69917 h -1.69917 v 1.71616 h -3.39834 v -0.017 z m 37.381741,-23.77139 v 3.39834 H 79.731077 v 6.79668 h 10.195019 v 3.39834 H 79.731077 v 6.79668 h 13.593359 v 3.39834 H 76.332737 v -23.78838 z m 18.690864,3.39834 h 1.69917 v 3.39834 h -3.39834 v -1.69917 h -1.69917 v -1.69917 h -6.79668 v 1.69917 h -1.69917 v 3.39834 h 1.69917 v 1.69917 h 8.49585 v 1.69917 h 1.69917 v 1.69917 h 1.69917 v 6.79668 h -1.69917 v 1.69917 h -1.69917 v 1.69917 h -10.19502 v -1.69917 h -1.699166 v -1.69917 h -1.69917 v -3.39834 h 3.398336 v 1.69917 h 1.69917 v 1.69917 h 6.79668 v -1.69917 h 1.69917 v -3.39834 h -1.69917 v -1.69917 h -8.49585 v -1.69917 h -1.699166 v -1.69917 h -1.69917 v -6.79668 h 1.69917 v -1.69917 h 1.699166 v -1.69917 h 10.19502 v 1.69917 h 1.69917 z m 8.49585,0 v 6.79668 h 8.49585 v -1.69917 h 1.69917 v -3.39834 H 129.007 v -1.69917 z m 0,10.19502 v 10.19502 h -3.39834 v -23.78838 h 13.59336 v 1.69917 h 1.69917 v 1.69917 h 1.69917 v 6.79668 h -1.69917 v 1.69917 h -1.69917 v 1.69917 z m 20.39005,10.19502 v -3.39834 h 3.39834 v -16.9917 h -3.39834 v -3.39834 h 10.19502 v 3.39834 h -3.39834 v 16.9917 h 3.39834 v 3.39834 z m 20.39003,-20.39004 v 6.79668 h 8.49585 v -1.69917 h 1.69917 v -3.39834 h -1.69917 v -1.69917 z m 1.69917,10.19502 h -1.69917 v 10.19502 h -3.39834 v -23.78838 h 13.59336 v 1.69917 h 1.69917 v 1.69917 h 1.69917 v 6.79668 h -1.69917 v 1.69917 h -1.69917 v 1.69917 h -3.39834 v 1.69917 h 1.69917 v 1.69917 h 1.69917 v 1.68218 h 1.69917 v 1.71616 h 1.69917 v 3.39834 h -3.39834 v -1.71616 h -1.69917 v -1.68218 h -1.69917 v -1.69917 h -1.69917 v -1.69917 h -1.69917 v -1.69917 h -1.69917 z m 32.28423,-13.59336 v 3.39834 h -13.59336 v 6.79668 h 10.19502 v 3.39834 h -10.19502 v 6.79668 h 13.59336 v 3.39834 h -16.9917 v -23.78838 z m 27.18672,20.39004 h 13.59336 v 3.39834 h -16.9917 v -10.19502 h 1.69917 v -1.69917 h 1.69917 v -1.69917 h 8.49585 v -1.69917 h 1.69917 v -3.39834 h -1.69917 v -1.69917 h -6.79668 v 1.69917 h -1.69917 v 1.69917 h -3.39834 v -3.39834 h 1.69917 v -1.69917 h 1.69917 v -1.69917 h 10.19502 v 1.69917 h 1.69917 v 1.69917 h 1.69917 v 6.79668 h -1.69917 v 1.69917 h -1.69917 v 1.69917 h -8.49585 v 1.69917 h -1.69917 z m 25.48755,0 v 3.39834 h -3.39834 v -3.39834 z m 16.99171,-6.79668 v -1.69917 h 1.69917 v -1.69917 h 1.69917 v -1.69917 h 1.69917 v -1.69917 h 3.39834 v -1.69917 h -1.69917 v -1.69917 h -6.79668 v 1.69917 h -1.69917 v 8.49585 z m -1.69917,3.39834 v 1.69917 h 1.69917 v 1.69917 h 6.81367 v -1.68218 h 1.68218 v -8.51284 h -1.69917 v 1.69917 h -1.69917 v 1.69917 h -1.69917 v 1.69917 h -1.69917 v 1.69917 z m 0,-15.29253 v -1.69917 h 10.19502 v 1.69917 h 1.69917 v 1.69917 h 1.69917 v 16.9917 h -1.68218 v 1.71616 h -1.71616 v 1.68218 h -10.19502 v -1.69917 h -1.69917 v -1.69917 h -1.69917 v -16.9917 h 1.69917 v -1.69917 z"
       id="text1"
       aria-label="CODESPIRE 2.0" /><g
       id="svgg-1"
       transform="matrix(0.09657679,0,0,0.09657679,-32.086597,105.19307)"><path
         id="path0-9"
         d="m 22.665,440.219 c -2.588,0.817 -4.643,2.986 -5.292,5.586 -0.334,1.337 -0.334,26.811 0,28.148 0.48,1.92 2.127,4.126 3.672,4.916 1.92,0.982 1.585,0.965 19.328,0.968 l 16.683,0.002 v -3.729 -3.729 L 40.978,472.33 24.899,472.278 V 459.879 447.48 l 16.079,-0.052 16.078,-0.051 v -3.729 -3.729 l -16.784,0.02 c -13.097,0.016 -16.965,0.077 -17.607,0.28 m 44.918,0.117 c -1.989,0.686 -3.522,2.061 -4.435,3.978 l -0.547,1.15 v 14.415 14.415 l 0.533,1.137 c 0.929,1.982 2.422,3.295 4.559,4.01 1.552,0.52 27.454,0.612 29.128,0.104 2.581,-0.783 4.523,-2.73 5.31,-5.322 0.42,-1.384 0.42,-27.304 0,-28.688 -0.77,-2.537 -2.775,-4.553 -5.285,-5.314 -1.64,-0.498 -27.786,-0.395 -29.263,0.115 m 40.683,19.543 v 19.96 l 16.684,-0.002 c 19.567,-0.003 18.567,0.111 21.018,-2.393 2.336,-2.388 2.212,-1.397 2.212,-17.565 -0.001,-14.281 0.011,-14.061 -0.806,-15.827 -0.368,-0.796 -2.336,-2.779 -3.191,-3.215 -1.809,-0.922 -1.623,-0.913 -19.233,-0.915 l -16.684,-0.003 v 19.96 m 45.968,0 v 19.96 h 18.447 18.448 v -3.73 -3.73 h -14.617 -14.617 v -4.335 -4.334 h 11.795 11.794 v -3.73 -3.73 H 173.69 161.895 v -4.435 -4.436 h 14.617 14.617 v -3.73 -3.73 h -18.448 -18.447 v 19.96 m 47.054,-19.58 c -2.037,0.695 -3.598,2.136 -4.592,4.241 l -0.627,1.327 -0.063,5.505 c -0.077,6.803 0.437,8.751 2.762,10.483 0.4,0.298 0.773,0.588 0.829,0.644 0.141,0.143 0.956,0.511 1.97,0.89 0.754,0.281 2.463,0.321 13.864,0.321 h 13.004 l -0.054,4.284 -0.054,4.284 -11.896,0.056 c -14.213,0.066 -12.802,0.262 -12.802,-1.773 v -1.609 h -3.831 -3.83 v 2.11 c 0,4.441 1.939,7.372 5.615,8.488 1.234,0.375 27.487,0.429 28.645,0.059 4.722,-1.508 5.859,-3.753 5.857,-11.565 -0.002,-7.317 -0.788,-9.331 -4.331,-11.092 l -1.21,-0.601 -13.407,-0.106 c -7.374,-0.058 -13.43,-0.126 -13.458,-0.151 -0.376,-0.34 0.007,-8.519 0.404,-8.616 0.249,-0.06 5.806,-0.085 12.348,-0.054 l 11.896,0.056 0.058,1.663 0.059,1.663 h 3.822 3.823 l -0.001,-2.066 c -0.003,-4.561 -1.886,-7.322 -5.86,-8.591 -1.327,-0.423 -27.659,-0.287 -28.94,0.15 m 40.446,19.58 v 19.96 h 3.73 3.73 v -6.754 -6.754 l 12.752,-0.003 c 13.837,-0.002 13.92,-0.008 15.826,-1.125 1.115,-0.653 2.672,-2.17 2.672,-2.603 0,-0.166 0.076,-0.302 0.171,-0.302 0.862,0 1.525,-12.927 0.828,-16.129 -0.641,-2.943 -2.708,-5.177 -5.559,-6.008 -0.616,-0.179 -5.13,-0.242 -17.49,-0.242 h -16.66 v 19.96 m 43.548,0 v 19.96 h 3.73 3.73 v -19.96 -19.96 h -3.73 -3.73 v 19.96 m 11.895,0 v 19.96 h 3.831 3.831 v -6.754 -6.754 h 6.377 6.378 l 0.492,0.554 c 0.27,0.305 0.733,0.872 1.029,1.26 0.296,0.388 0.677,0.842 0.848,1.008 0.17,0.167 0.761,0.847 1.312,1.512 0.552,0.666 1.051,1.255 1.109,1.311 0.057,0.055 0.556,0.645 1.108,1.31 0.552,0.666 1.051,1.255 1.109,1.311 0.058,0.055 0.557,0.643 1.109,1.306 0.552,0.663 1.185,1.401 1.407,1.64 0.222,0.238 0.721,0.849 1.109,1.357 l 0.705,0.923 4.184,0.008 4.183,0.008 v -1.084 c 0,-0.965 -0.079,-1.169 -0.725,-1.865 -0.399,-0.43 -0.965,-1.099 -1.258,-1.487 -0.293,-0.388 -0.669,-0.842 -0.837,-1.008 -0.168,-0.166 -0.756,-0.847 -1.308,-1.512 -0.552,-0.665 -1.051,-1.255 -1.109,-1.31 -0.058,-0.056 -0.557,-0.646 -1.109,-1.311 -0.552,-0.665 -1.051,-1.255 -1.109,-1.31 -0.351,-0.336 -2.02,-2.404 -2.02,-2.502 0,-0.066 0.687,-0.119 1.528,-0.119 2.612,0 4.817,-1.125 6.541,-3.336 0.169,-0.217 0.532,-0.848 0.806,-1.402 l 0.5,-1.008 v -7.258 c 0,-7.51 0.01,-7.393 -0.862,-9.375 -0.411,-0.932 -2.3,-2.748 -3.346,-3.216 -1.833,-0.821 -1.734,-0.817 -19.008,-0.817 h -16.805 v 19.96 m 45.767,0 v 19.96 h 18.447 18.448 v -3.73 -3.73 h -14.617 -14.617 v -4.335 -4.334 h 11.693 11.694 v -3.73 -3.73 h -11.694 -11.693 v -4.435 -4.436 h 14.617 14.617 v -3.73 -3.73 h -18.448 -18.447 v 19.96 m -248.287,0 v 12.399 l -11.895,0.056 c -6.542,0.031 -12.099,0.006 -12.349,-0.054 l -0.453,-0.11 v -12.278 c 0,-9.633 0.054,-12.3 0.252,-12.38 0.138,-0.057 5.695,-0.087 12.348,-0.067 l 12.097,0.035 v 12.399 m 45.827,-12.258 c 0.349,0.349 0.349,24.167 0,24.516 -0.35,0.35 -24.167,0.35 -24.516,0 -0.35,-0.349 -0.35,-24.167 0,-24.516 0.183,-0.183 3.181,-0.242 12.258,-0.242 9.077,0 12.075,0.059 12.258,0.242 m 133.259,-0.074 c 0.198,0.126 0.244,1.403 0.202,5.693 l -0.054,5.53 -11.895,0.056 c -6.542,0.031 -12.099,0.006 -12.349,-0.054 l -0.453,-0.11 v -5.524 c 0,-4.23 0.059,-5.548 0.252,-5.625 0.425,-0.172 24.025,-0.139 24.297,0.034 m 55.575,-0.046 c 0.484,0.186 0.484,11.062 0,11.248 -0.656,0.251 -23.981,0.136 -24.237,-0.12 -0.176,-0.176 -0.242,-1.68 -0.242,-5.504 0,-3.824 0.066,-5.328 0.242,-5.504 0.256,-0.256 23.581,-0.371 24.237,-0.12"
         stroke="none"
         fill="#044c7c"
         fill-rule="evenodd"
         style="fill:#ffffff;fill-opacity:1" /><path
         id="path1-7"
         d="m 396.119,85.383 c -0.028,42.193 0.018,76.714 0.101,76.714 0.083,0 0.151,-34.521 0.151,-76.714 0,-42.192 -0.045,-76.714 -0.1,-76.714 -0.055,0 -0.124,34.522 -0.152,76.714 M 378.49,18.789 c -0.243,0.118 -0.49,0.339 -0.549,0.492 -0.064,0.167 0.135,0.1 0.492,-0.164 0.807,-0.597 0.825,-0.699 0.057,-0.328 m -4.618,2.834 c -0.381,0.45 -0.381,0.451 0.019,0.127 0.222,-0.179 0.539,-0.376 0.706,-0.438 0.256,-0.094 0.254,-0.113 -0.019,-0.127 -0.177,-0.008 -0.495,0.188 -0.706,0.438 m -7.743,4.385 c -0.277,0.217 -0.428,0.396 -0.334,0.399 0.093,0.002 0.4,-0.177 0.682,-0.399 0.282,-0.222 0.433,-0.401 0.334,-0.399 -0.098,0.003 -0.405,0.182 -0.682,0.399 m -12.992,7.527 c -0.267,0.195 -0.289,0.269 -0.08,0.269 0.158,0 0.4,-0.121 0.538,-0.269 0.139,-0.148 0.175,-0.269 0.081,-0.269 -0.095,0 -0.337,0.121 -0.539,0.269 m -4.234,2.459 c -0.341,0.258 -0.348,0.296 -0.05,0.296 0.187,0 0.341,-0.096 0.341,-0.213 0,-0.118 0.09,-0.158 0.201,-0.089 0.111,0.068 0.202,0.028 0.202,-0.089 0,-0.29 -0.226,-0.259 -0.694,0.095 m -10.395,6.042 c -0.277,0.159 -0.413,0.288 -0.302,0.288 0.111,0 0.428,-0.129 0.705,-0.288 0.278,-0.158 0.414,-0.288 0.303,-0.288 -0.111,0 -0.429,0.13 -0.706,0.288 m -18.273,10.685 c -0.064,0.165 -0.191,0.255 -0.283,0.198 -0.091,-0.057 -0.223,-0.011 -0.293,0.102 -0.233,0.378 0.408,0.21 0.758,-0.198 0.19,-0.222 0.252,-0.404 0.139,-0.404 -0.113,0 -0.258,0.136 -0.321,0.302 m -8.239,4.761 c -0.333,0.233 -0.439,0.369 -0.236,0.301 0.204,-0.067 0.443,-0.122 0.533,-0.122 0.09,0 0.216,-0.136 0.28,-0.302 0.147,-0.383 0.146,-0.383 -0.577,0.123 m -4.02,2.303 c -0.342,0.258 -0.348,0.296 -0.051,0.296 0.188,0 0.341,-0.096 0.341,-0.214 0,-0.117 0.105,-0.149 0.233,-0.07 0.144,0.09 0.178,0.056 0.089,-0.088 -0.174,-0.282 -0.133,-0.287 -0.612,0.076 m -14.73,8.562 c -0.333,0.22 -0.514,0.399 -0.403,0.397 0.202,-0.003 1.298,-0.789 1.109,-0.795 -0.056,-0.001 -0.373,0.177 -0.706,0.398 m -7.409,4.278 c -0.416,0.241 -0.756,0.525 -0.756,0.631 0,0.107 0.166,0.043 0.369,-0.141 0.203,-0.183 0.43,-0.273 0.504,-0.199 0.074,0.074 0.135,0.029 0.135,-0.1 0,-0.13 0.13,-0.235 0.29,-0.235 0.16,0 0.347,-0.091 0.415,-0.202 0.195,-0.316 -0.135,-0.231 -0.957,0.246 m -20.313,11.869 -0.504,0.412 0.504,-0.258 c 0.277,-0.142 0.579,-0.236 0.67,-0.21 0.092,0.026 0.109,-0.045 0.039,-0.159 -0.16,-0.258 -0.113,-0.273 -0.709,0.215 M 246.503,95.49 c -0.426,0.279 -0.716,0.566 -0.644,0.638 0.072,0.072 0.194,0.031 0.271,-0.09 0.077,-0.122 0.502,-0.414 0.944,-0.65 0.442,-0.236 0.668,-0.423 0.504,-0.416 -0.165,0.006 -0.648,0.24 -1.075,0.518 m -7.586,4.419 c -0.385,0.272 -0.626,0.494 -0.535,0.494 0.09,0 0.416,-0.179 0.723,-0.397 0.306,-0.219 0.63,-0.332 0.718,-0.252 0.089,0.08 0.096,0.032 0.016,-0.107 -0.176,-0.305 -0.08,-0.332 -0.922,0.262 m -7.667,4.526 c 0,0.111 -0.136,0.202 -0.302,0.202 -0.167,0 -0.303,0.094 -0.303,0.209 0,0.141 0.13,0.139 0.403,-0.007 0.359,-0.192 0.566,-0.605 0.303,-0.605 -0.056,0 -0.101,0.091 -0.101,0.201 m -9.201,5.342 c -0.063,0.166 -0.211,0.242 -0.327,0.171 -0.132,-0.082 -0.151,-0.033 -0.049,0.132 0.129,0.209 0.212,0.195 0.404,-0.066 0.133,-0.182 0.315,-0.264 0.405,-0.182 0.09,0.081 0.098,0.034 0.018,-0.104 -0.19,-0.331 -0.31,-0.318 -0.451,0.049 m -2.555,1.41 c -0.201,0.146 -0.279,0.319 -0.174,0.384 0.105,0.065 0.305,-0.019 0.444,-0.187 0.341,-0.411 0.181,-0.527 -0.27,-0.197 m -3.634,2.254 c -0.074,0.074 -0.134,29.605 -0.134,65.625 v 65.49 l 0.453,-0.023 c 0.343,-0.018 0.367,-0.046 0.101,-0.116 -0.336,-0.087 -0.351,-3.313 -0.303,-65.601 0.028,-36.03 0.044,-65.51 0.034,-65.51 -0.009,0 -0.077,0.061 -0.151,0.135 m 111.227,0.766 c -0.231,0.162 -0.493,0.23 -0.581,0.151 -0.088,-0.079 -0.099,-0.039 -0.026,0.089 0.143,0.251 1.136,-0.084 1.139,-0.384 0.003,-0.209 -0.049,-0.195 -0.532,0.144 m -10.696,4.766 c -0.624,0.18 -1.1,0.583 -0.689,0.583 0.111,0 0.258,-0.09 0.326,-0.201 0.069,-0.111 0.296,-0.202 0.504,-0.202 0.209,0 0.436,-0.091 0.504,-0.201 0.069,-0.111 0.097,-0.194 0.063,-0.184 -0.035,0.01 -0.353,0.102 -0.708,0.205 m -2.076,0.917 c -0.278,0.146 -0.369,0.265 -0.202,0.265 0.348,0 0.942,-0.337 0.801,-0.453 -0.053,-0.043 -0.322,0.042 -0.599,0.188 m -49.043,40.543 c 0.028,10.285 0.074,23.418 0.103,29.184 0.029,5.766 0.074,-2.649 0.101,-18.7 0.026,-16.051 -0.02,-29.183 -0.103,-29.183 -0.083,0 -0.128,8.415 -0.101,18.699 m 107.913,5.736 c 0,0.089 0.177,0.162 0.392,0.162 0.215,0 0.436,-0.073 0.491,-0.162 0.055,-0.088 -0.121,-0.161 -0.392,-0.161 -0.27,0 -0.491,0.073 -0.491,0.161 m 22.884,148.347 c 0,69.083 0.068,125.605 0.151,125.605 0.083,0 0.151,-56.522 0.151,-125.605 0,-69.083 -0.068,-125.605 -0.151,-125.605 -0.083,0 -0.151,56.522 -0.151,125.605 m -3.327,-125.244 c 0,0.087 0.181,0.172 0.403,0.189 0.222,0.016 0.403,-0.055 0.403,-0.159 0,-0.104 -0.181,-0.189 -0.403,-0.189 -0.222,0 -0.403,0.071 -0.403,0.159 m -4.92,0.415 c -0.103,0.166 1.505,0.085 1.675,-0.085 0.048,-0.047 -0.286,-0.086 -0.742,-0.086 -0.455,0 -0.875,0.077 -0.933,0.171 m -16.419,1.339 c 0.159,0.16 1.174,0.272 1.256,0.139 0.047,-0.075 -0.235,-0.155 -0.625,-0.177 -0.39,-0.022 -0.674,-0.005 -0.631,0.038 m 1.833,0.04 c 0.194,0.051 0.511,0.051 0.706,0 0.194,-0.05 0.035,-0.092 -0.353,-0.092 -0.388,0 -0.547,0.042 -0.353,0.092 m -6.784,0.433 c -0.057,0.092 0.165,0.168 0.492,0.168 0.328,0 0.596,-0.076 0.596,-0.168 0,-0.093 -0.221,-0.168 -0.492,-0.168 -0.27,0 -0.539,0.075 -0.596,0.168 m -9.538,0.765 c 0.151,0.151 1.964,0.135 2.118,-0.019 0.059,-0.059 -0.421,-0.108 -1.068,-0.108 -0.647,0 -1.119,0.057 -1.05,0.127 m -6.712,0.698 c 0,0.088 0.308,0.142 0.686,0.121 0.378,-0.021 0.648,-0.101 0.601,-0.176 -0.118,-0.191 -1.287,-0.14 -1.287,0.055 m -14.718,1.179 c 0,0.157 1.146,0.143 1.305,-0.016 0.052,-0.052 -0.221,-0.103 -0.606,-0.114 -0.384,-0.011 -0.699,0.048 -0.699,0.13 m -4.839,0.415 c 0,0.257 0.612,0.257 1.008,0 0.23,-0.148 0.145,-0.196 -0.353,-0.198 -0.36,-0.002 -0.655,0.088 -0.655,0.198 m -11.578,0.985 c -0.06,0.098 0.153,0.167 0.475,0.154 0.321,-0.013 0.541,-0.093 0.489,-0.178 -0.131,-0.212 -0.829,-0.194 -0.964,0.024 m -4.851,0.424 c -0.077,0.124 0.126,0.151 0.542,0.072 0.892,-0.17 0.968,-0.271 0.207,-0.271 -0.345,0 -0.682,0.089 -0.749,0.199 m -4.831,0.39 c -0.105,0.17 0.819,0.162 0.99,-0.009 0.069,-0.07 -0.107,-0.126 -0.39,-0.126 -0.284,0 -0.554,0.061 -0.6,0.135 m -4.748,0.375 c 0,0.19 0.948,0.172 1.141,-0.022 0.075,-0.074 -0.151,-0.135 -0.502,-0.135 -0.352,0 -0.639,0.071 -0.639,0.157 m -4.916,0.41 c -0.109,0.176 1.27,0.122 1.449,-0.057 0.059,-0.059 -0.22,-0.107 -0.62,-0.107 -0.401,0 -0.773,0.074 -0.829,0.164 m -11.789,1.023 c -0.193,0.123 -0.119,0.174 0.252,0.174 0.289,0 0.526,-0.08 0.526,-0.177 0,-0.224 -0.422,-0.222 -0.778,0.003 m -13.738,1.204 c 0,0.096 0.226,0.13 0.504,0.078 0.277,-0.053 0.504,-0.132 0.504,-0.174 0,-0.043 -0.227,-0.077 -0.504,-0.077 -0.278,0 -0.504,0.078 -0.504,0.173 m -45.055,46.39 c -0.084,0.135 0.21,0.211 0.822,0.211 1.087,0 1.102,-0.138 0.035,-0.307 -0.417,-0.066 -0.782,-0.026 -0.857,0.096 m 2.212,0.211 c 0.222,0.095 0.539,0.173 0.705,0.173 0.191,0 0.154,-0.064 -0.1,-0.173 -0.222,-0.096 -0.54,-0.174 -0.706,-0.174 -0.191,0 -0.153,0.065 0.101,0.174 m 5.873,0.647 c 0.125,0.203 1.082,0.21 1.082,0.008 0,-0.084 -0.265,-0.156 -0.59,-0.16 -0.325,-0.004 -0.547,0.064 -0.492,0.152 m 7.784,0.678 c 0.063,0.063 0.419,0.152 0.79,0.198 0.526,0.064 0.585,0.042 0.271,-0.102 -0.45,-0.204 -1.241,-0.276 -1.061,-0.096 m 5.904,0.699 c 0.052,0.084 0.419,0.153 0.815,0.153 0.395,0 0.676,-0.043 0.623,-0.096 -0.164,-0.164 -1.537,-0.218 -1.438,-0.057 m 4.128,0.43 c 0,0.092 0.272,0.167 0.605,0.167 0.333,0 0.605,-0.035 0.605,-0.078 0,-0.043 -0.272,-0.118 -0.605,-0.167 -0.333,-0.049 -0.605,-0.014 -0.605,0.078 m 3.751,0.401 c 0.053,0.086 0.406,0.144 0.785,0.13 0.38,-0.014 0.649,-0.093 0.598,-0.175 -0.051,-0.082 -0.405,-0.141 -0.786,-0.13 -0.381,0.011 -0.65,0.09 -0.597,0.175 m 17.914,1.796 c -0.064,0.103 0.222,0.187 0.635,0.187 0.841,0 0.854,-0.126 0.028,-0.276 -0.301,-0.054 -0.599,-0.014 -0.663,0.089 m 21.985,2.204 c -0.075,0.119 0.146,0.195 0.542,0.187 0.556,-0.012 0.6,-0.043 0.264,-0.187 -0.547,-0.235 -0.661,-0.235 -0.806,0 m 7.963,0.806 c -0.235,0.152 -0.176,0.196 0.264,0.199 0.327,0.001 0.514,-0.083 0.442,-0.199 -0.155,-0.25 -0.318,-0.25 -0.706,0 m 21.859,2.245 c -0.06,0.096 0.169,0.174 0.508,0.174 0.34,0 0.617,-0.034 0.617,-0.077 0,-0.171 -1.025,-0.26 -1.125,-0.097 m 5.409,0.515 c 0.194,0.051 0.512,0.051 0.706,0 0.194,-0.051 0.035,-0.092 -0.353,-0.092 -0.388,0 -0.547,0.041 -0.353,0.092 m 2.499,0.311 c 0.051,0.082 0.267,0.123 0.48,0.09 0.628,-0.096 0.632,-0.255 0.006,-0.247 -0.318,0.005 -0.537,0.075 -0.486,0.157 m -120.595,44.61 c 0,21.402 0.023,30.127 0.052,19.39 0.029,-10.737 0.029,-28.248 0,-38.912 -0.029,-10.664 -0.052,-1.879 -0.052,19.522 m 12.418,-36.923 c 0.24,0.208 1.192,0.314 1.192,0.133 0,-0.113 -0.287,-0.205 -0.638,-0.205 -0.351,0 -0.601,0.032 -0.554,0.072 m 2.805,0.408 c 0,0.043 0.227,0.121 0.504,0.174 0.278,0.053 0.504,0.018 0.504,-0.078 0,-0.095 -0.226,-0.173 -0.504,-0.173 -0.277,0 -0.504,0.035 -0.504,0.077 m 25.605,3.631 c 0,0.196 0.568,0.269 0.825,0.107 0.207,-0.131 0.133,-0.181 -0.27,-0.183 -0.305,-0.002 -0.555,0.032 -0.555,0.076 m 5.444,0.805 c 0,0.171 1.025,0.259 1.125,0.097 0.06,-0.096 -0.169,-0.175 -0.508,-0.175 -0.34,0 -0.617,0.035 -0.617,0.078 m 3.323,21.192 c 0,11.422 0.024,16.065 0.054,10.318 0.03,-5.747 0.029,-15.092 0,-20.766 -0.03,-5.675 -0.054,-0.973 -0.054,10.448 m 5.459,22.978 c 0.215,0.163 0.482,0.296 0.593,0.296 0.111,0 0.025,-0.133 -0.19,-0.296 -0.215,-0.163 -0.482,-0.296 -0.593,-0.296 -0.111,0 -0.025,0.133 0.19,0.296 m 8.355,3.546 c 0,0.118 0.084,0.162 0.188,0.098 0.103,-0.064 0.244,-0.024 0.314,0.089 0.07,0.113 0.235,0.202 0.367,0.198 0.132,-0.003 0.064,-0.139 -0.152,-0.302 -0.461,-0.349 -0.717,-0.379 -0.717,-0.083 m 22.871,9.575 c 0.433,0.324 0.802,0.391 0.632,0.115 -0.06,-0.097 -0.315,-0.229 -0.567,-0.292 -0.44,-0.111 -0.443,-0.105 -0.065,0.177 m 26.121,11.012 c 0,0.129 0.06,0.175 0.132,0.102 0.073,-0.073 0.255,-0.031 0.404,0.092 0.17,0.141 0.27,0.149 0.27,0.02 0,-0.113 -0.143,-0.26 -0.319,-0.327 -0.438,-0.168 -0.487,-0.157 -0.487,0.113 m 2.621,0.965 c 0.608,0.45 1.008,0.626 1.008,0.443 0,-0.102 -0.159,-0.241 -0.353,-0.31 -0.194,-0.068 -0.489,-0.176 -0.655,-0.24 -0.269,-0.103 -0.269,-0.091 0,0.107 m -113.307,2.932 c 0.278,0.159 0.64,0.288 0.807,0.288 0.166,-10e-4 -0.003,-0.133 -0.376,-0.295 -0.859,-0.373 -1.089,-0.369 -0.431,0.007 m 28.428,15.572 c 0,0.142 0.659,0.644 0.857,0.652 0.334,0.014 0.117,-0.31 -0.355,-0.529 -0.276,-0.128 -0.502,-0.184 -0.502,-0.123 m 39.113,21.608 c 0,0.117 0.476,0.463 1.058,0.77 1.417,0.745 1.361,0.727 1.361,0.441 0,-0.139 -0.058,-0.195 -0.128,-0.124 -0.07,0.07 -0.355,-0.051 -0.632,-0.269 -0.277,-0.218 -0.621,-0.397 -0.765,-0.397 -0.143,0 -0.403,-0.142 -0.578,-0.317 -0.174,-0.174 -0.316,-0.221 -0.316,-0.104 m 4.636,2.715 c 0.277,0.162 0.542,0.256 0.588,0.21 0.126,-0.125 -0.026,-0.221 -0.587,-0.37 l -0.504,-0.134 0.503,0.294 m 30.557,16.954 c 0.468,0.354 0.694,0.385 0.694,0.095 0,-0.117 -0.085,-0.161 -0.188,-0.097 -0.103,0.063 -0.245,0.023 -0.314,-0.089 -0.07,-0.113 -0.23,-0.205 -0.355,-0.205 -0.126,0 -0.052,0.133 0.163,0.296"
         stroke="none"
         fill="#fcbc04"
         fill-rule="evenodd" /><path
         id="path2-1"
         d="m 5.242,224.395 c 0,118.649 0.059,215.726 0.132,215.726 0.072,0 0.685,-0.306 1.361,-0.681 0.676,-0.374 1.864,-1.023 2.64,-1.44 0.776,-0.418 1.502,-0.826 1.613,-0.906 0.111,-0.08 0.723,-0.43 1.361,-0.777 0.637,-0.347 1.681,-0.916 2.318,-1.263 0.638,-0.347 1.25,-0.699 1.361,-0.782 0.111,-0.082 0.882,-0.51 1.714,-0.951 0.832,-0.44 1.83,-0.981 2.218,-1.201 0.388,-0.221 1.204,-0.675 1.814,-1.011 2.682,-1.474 3.572,-1.965 4.222,-2.33 0.382,-0.213 1.108,-0.613 1.613,-0.888 0.506,-0.274 1.237,-0.686 1.625,-0.915 0.388,-0.229 1.467,-0.816 2.398,-1.304 0.93,-0.488 1.928,-1.047 2.217,-1.242 0.29,-0.195 0.98,-0.577 1.534,-0.848 0.555,-0.27 1.053,-0.538 1.109,-0.595 0.055,-0.057 0.282,-0.203 0.504,-0.324 1.008,-0.55 4.828,-2.651 5.645,-3.105 0.333,-0.185 1.331,-0.727 2.218,-1.205 0.887,-0.478 1.711,-0.945 1.83,-1.038 0.12,-0.093 0.8,-0.473 1.512,-0.844 0.712,-0.371 1.613,-0.867 2.001,-1.102 0.388,-0.235 1.204,-0.682 1.814,-0.993 0.61,-0.311 1.154,-0.611 1.21,-0.666 0.055,-0.056 0.282,-0.2 0.504,-0.321 0.222,-0.121 0.811,-0.446 1.31,-0.723 0.499,-0.277 1.724,-0.942 2.722,-1.478 0.998,-0.536 1.86,-1.027 1.915,-1.091 0.056,-0.065 0.555,-0.342 1.109,-0.616 0.555,-0.274 1.462,-0.762 2.016,-1.085 1.059,-0.616 3.045,-1.701 4.478,-2.447 0.466,-0.243 0.965,-0.536 1.109,-0.65 0.143,-0.115 1.167,-0.69 2.276,-1.277 1.109,-0.588 2.355,-1.28 2.768,-1.537 0.414,-0.258 0.792,-0.469 0.84,-0.469 0.049,0 0.97,-0.499 2.046,-1.109 1.077,-0.61 1.988,-1.109 2.025,-1.109 0.036,0 0.528,-0.272 1.094,-0.606 1.002,-0.591 2.692,-1.524 4.735,-2.614 0.555,-0.296 1.392,-0.781 1.861,-1.078 0.469,-0.297 0.889,-0.54 0.933,-0.54 0.072,0 1.987,-1.045 3.967,-2.163 0.391,-0.221 1.344,-0.738 2.117,-1.148 0.772,-0.411 1.722,-0.937 2.11,-1.168 0.388,-0.232 1.16,-0.667 1.714,-0.966 0.554,-0.3 1.462,-0.796 2.016,-1.103 0.555,-0.306 1.462,-0.804 2.016,-1.107 0.555,-0.302 1.326,-0.739 1.714,-0.971 0.388,-0.232 1.332,-0.754 2.098,-1.161 0.766,-0.408 1.673,-0.906 2.016,-1.109 0.343,-0.202 1.168,-0.658 1.834,-1.012 2.166,-1.155 3.423,-1.852 3.633,-2.017 0.114,-0.089 0.703,-0.426 1.311,-0.749 0.607,-0.322 1.421,-0.767 1.81,-0.988 0.773,-0.44 2.507,-1.397 4.233,-2.337 0.61,-0.332 1.2,-0.668 1.311,-0.747 0.111,-0.079 1.063,-0.603 2.117,-1.163 1.053,-0.56 2.491,-1.345 3.195,-1.744 0.703,-0.4 1.354,-0.726 1.445,-0.726 0.091,0 0.195,-0.068 0.232,-0.152 0.037,-0.083 0.385,-0.31 0.773,-0.505 0.388,-0.196 0.978,-0.52 1.311,-0.721 0.332,-0.201 1.194,-0.689 1.915,-1.083 0.721,-0.394 1.719,-0.942 2.218,-1.217 0.499,-0.275 1.406,-0.775 2.016,-1.111 0.61,-0.335 2.687,-1.482 4.617,-2.548 1.929,-1.066 3.577,-1.938 3.662,-1.938 0.085,0 0.185,-0.068 0.222,-0.151 0.037,-0.083 0.566,-0.405 1.176,-0.716 0.61,-0.311 1.472,-0.784 1.915,-1.052 0.444,-0.268 1.442,-0.821 2.218,-1.23 0.776,-0.408 1.75,-0.955 2.164,-1.216 0.413,-0.26 0.787,-0.473 0.831,-0.473 0.043,0 0.96,-0.499 2.037,-1.109 1.076,-0.61 1.984,-1.109 2.016,-1.109 0.032,0 0.939,-0.499 2.016,-1.109 1.077,-0.61 2.041,-1.109 2.143,-1.109 0.101,0 0.186,-0.068 0.187,-0.151 0.002,-0.083 0.478,-0.378 1.059,-0.655 0.58,-0.277 1.527,-0.799 2.104,-1.159 0.577,-0.361 1.088,-0.656 1.135,-0.656 0.047,0 0.8,-0.396 1.673,-0.88 3.34,-1.853 3.888,-2.156 6.678,-3.689 0.471,-0.259 1.287,-0.713 1.814,-1.008 0.527,-0.295 1.23,-0.673 1.563,-0.841 0.332,-0.167 0.65,-0.361 0.705,-0.43 0.056,-0.07 0.6,-0.374 1.21,-0.676 0.61,-0.302 1.472,-0.77 1.915,-1.039 0.444,-0.269 1.192,-0.691 1.664,-0.938 l 0.856,-0.449 v -26.88 -26.879 H 160.385 137.1 l -0.052,10.626 -0.052,10.626 -41.028,20.52 -41.028,20.519 -0.051,-119.99 c -0.028,-65.994 -0.005,-120.035 0.052,-120.092 0.056,-0.056 0.487,0.088 0.958,0.319 0.47,0.232 1.808,0.827 2.972,1.323 1.164,0.495 2.661,1.147 3.327,1.449 0.665,0.301 1.413,0.629 1.663,0.729 0.899,0.358 1.389,0.573 3.137,1.378 0.977,0.45 1.813,0.818 1.859,0.818 0.046,0 0.608,0.239 1.248,0.531 1.409,0.643 2.539,1.143 3.484,1.542 1.028,0.435 1.863,0.802 4.234,1.859 2.462,1.098 3.372,1.493 3.931,1.708 0.222,0.085 0.902,0.383 1.512,0.661 0.61,0.278 1.427,0.643 1.815,0.811 0.914,0.396 2.392,1.053 4.032,1.794 0.721,0.325 1.492,0.668 1.714,0.762 0.221,0.094 0.72,0.305 1.108,0.469 0.825,0.349 3.668,1.6 5.198,2.288 0.585,0.263 1.105,0.479 1.155,0.479 0.05,0 0.795,0.324 1.657,0.72 1.646,0.756 2.516,1.145 3.684,1.647 0.388,0.166 1.159,0.508 1.714,0.76 0.554,0.251 2.505,1.112 4.334,1.914 2.985,1.308 3.719,1.626 5.142,2.227 0.221,0.093 0.992,0.436 1.713,0.761 0.721,0.325 1.991,0.883 2.823,1.24 0.831,0.357 2.011,0.877 2.621,1.155 1.137,0.52 2.21,0.986 2.923,1.269 0.222,0.088 0.948,0.407 1.613,0.709 0.999,0.453 3.201,1.419 5.242,2.3 0.222,0.096 0.948,0.422 1.613,0.726 0.665,0.303 1.391,0.623 1.613,0.711 0.222,0.088 0.789,0.321 1.26,0.517 l 0.857,0.357 v 9.134 9.135 h 23.286 23.286 V 139.3 c 0,-19.99 -0.05,-24.859 -0.259,-25.05 -0.27,-0.247 -0.584,-0.437 -2.144,-1.298 -0.508,-0.28 -1.164,-0.678 -1.458,-0.884 -0.295,-0.206 -0.635,-0.374 -0.756,-0.374 -0.122,0 -0.221,-0.081 -0.221,-0.179 0,-0.098 -0.159,-0.23 -0.353,-0.293 -0.194,-0.064 -0.716,-0.346 -1.159,-0.627 -0.444,-0.282 -0.943,-0.576 -1.109,-0.654 -0.305,-0.144 -3.269,-1.911 -3.831,-2.283 -0.166,-0.111 -0.438,-0.262 -0.605,-0.336 -0.166,-0.074 -0.348,-0.187 -0.403,-0.251 -0.103,-0.118 -0.389,-0.286 -2,-1.176 -0.508,-0.28 -1.164,-0.678 -1.459,-0.883 -0.294,-0.206 -0.634,-0.375 -0.756,-0.375 -0.121,0 -0.221,-0.068 -0.222,-0.151 -0.001,-0.083 -0.205,-0.25 -0.454,-0.37 -0.739,-0.356 -2.46,-1.345 -2.569,-1.475 -0.055,-0.067 -0.317,-0.243 -0.582,-0.392 -1.459,-0.822 -1.996,-1.133 -2.543,-1.474 -0.332,-0.208 -0.763,-0.432 -0.957,-0.499 -0.194,-0.067 -0.353,-0.191 -0.353,-0.276 0,-0.085 -0.159,-0.207 -0.353,-0.27 -0.194,-0.063 -0.806,-0.394 -1.361,-0.734 -0.554,-0.34 -1.144,-0.675 -1.31,-0.745 -0.167,-0.07 -0.439,-0.24 -0.605,-0.378 -0.427,-0.354 -2.049,-1.296 -2.47,-1.434 -0.194,-0.063 -0.353,-0.195 -0.353,-0.293 0,-0.098 -0.105,-0.178 -0.234,-0.178 -0.129,0 -0.692,-0.294 -1.251,-0.652 -1.448,-0.93 -2.193,-1.358 -2.597,-1.494 -0.195,-0.066 -0.353,-0.189 -0.353,-0.274 0,-0.085 -0.159,-0.209 -0.353,-0.276 -0.194,-0.067 -0.625,-0.291 -0.958,-0.499 -0.546,-0.341 -1.083,-0.652 -2.543,-1.474 -0.264,-0.149 -0.617,-0.375 -0.783,-0.502 -0.167,-0.128 -0.631,-0.414 -1.031,-0.637 -1.427,-0.793 -1.692,-0.948 -1.792,-1.047 -0.055,-0.056 -0.373,-0.234 -0.706,-0.395 -0.332,-0.161 -0.741,-0.401 -0.907,-0.533 -0.457,-0.363 -2.07,-1.292 -2.47,-1.423 -0.194,-0.064 -0.352,-0.196 -0.352,-0.294 0,-0.098 -0.085,-0.178 -0.188,-0.178 -0.18,0 -2.631,-1.388 -2.837,-1.607 -0.055,-0.059 -0.373,-0.24 -0.705,-0.402 -0.333,-0.162 -0.877,-0.479 -1.209,-0.705 -0.901,-0.612 -1.771,-1.112 -2.168,-1.246 -0.194,-0.066 -0.353,-0.177 -0.353,-0.248 0,-0.071 -0.295,-0.257 -0.655,-0.414 -0.361,-0.157 -0.701,-0.346 -0.756,-0.422 -0.103,-0.139 -1.753,-1.097 -2.569,-1.491 -0.249,-0.121 -0.453,-0.287 -0.454,-0.37 -10e-4,-0.083 -0.097,-0.151 -0.213,-0.151 -0.116,0 -0.708,-0.318 -1.314,-0.706 -0.607,-0.388 -1.192,-0.705 -1.301,-0.705 -0.109,0 -0.198,-0.074 -0.198,-0.164 0,-0.091 -0.317,-0.289 -0.705,-0.441 -0.389,-0.153 -0.706,-0.351 -0.706,-0.441 0,-0.09 -0.095,-0.164 -0.211,-0.164 -0.117,0 -0.708,-0.318 -1.315,-0.706 -0.606,-0.388 -1.192,-0.705 -1.301,-0.705 -0.108,0 -0.197,-0.081 -0.197,-0.178 0,-0.098 -0.159,-0.231 -0.353,-0.294 -0.194,-0.064 -0.716,-0.342 -1.159,-0.618 -0.444,-0.276 -1.034,-0.627 -1.311,-0.778 -0.999,-0.547 -1.514,-0.856 -1.613,-0.97 -0.055,-0.063 -0.237,-0.175 -0.403,-0.247 -0.166,-0.073 -0.665,-0.363 -1.109,-0.644 -0.443,-0.281 -0.965,-0.566 -1.159,-0.633 -0.194,-0.066 -0.353,-0.19 -0.353,-0.275 0,-0.086 -0.159,-0.209 -0.353,-0.274 -0.194,-0.065 -0.625,-0.281 -0.957,-0.479 -0.333,-0.199 -1.15,-0.672 -1.815,-1.051 -0.665,-0.38 -1.255,-0.741 -1.31,-0.804 -0.103,-0.116 -0.362,-0.268 -2.001,-1.176 -0.507,-0.281 -0.968,-0.573 -1.024,-0.648 -0.055,-0.076 -0.395,-0.265 -0.756,-0.422 -0.36,-0.157 -0.655,-0.343 -0.655,-0.414 0,-0.071 -0.159,-0.181 -0.353,-0.245 -0.194,-0.063 -0.715,-0.348 -1.159,-0.631 -0.444,-0.284 -0.965,-0.571 -1.159,-0.637 -0.194,-0.067 -0.353,-0.191 -0.353,-0.276 0,-0.085 -0.159,-0.208 -0.353,-0.273 -0.371,-0.125 -0.879,-0.414 -2.624,-1.491 -0.584,-0.36 -1.151,-0.655 -1.26,-0.655 -0.109,0 -0.199,-0.068 -0.2,-0.152 -10e-4,-0.083 -0.205,-0.249 -0.454,-0.369 -0.739,-0.357 -2.46,-1.345 -2.569,-1.476 -0.055,-0.066 -0.317,-0.242 -0.582,-0.391 -0.265,-0.149 -0.774,-0.436 -1.132,-0.636 -1.378,-0.775 -1.605,-0.916 -1.871,-1.16 -0.151,-0.138 -0.404,-0.252 -0.562,-0.252 -0.159,0 -0.288,-0.08 -0.288,-0.178 0,-0.098 -0.159,-0.23 -0.353,-0.293 -0.194,-0.064 -0.807,-0.394 -1.361,-0.733 -0.554,-0.34 -1.19,-0.707 -1.411,-0.815 -0.222,-0.109 -0.98,-0.561 -1.684,-1.005 -0.704,-0.443 -1.315,-0.806 -1.357,-0.806 -0.042,0 -0.561,-0.311 -1.154,-0.69 -0.593,-0.379 -1.398,-0.869 -1.791,-1.09 -0.392,-0.22 -0.93,-0.522 -1.194,-0.671 -0.265,-0.149 -0.527,-0.317 -0.582,-0.372 -0.143,-0.143 -0.75,-0.498 -1.916,-1.124 -0.554,-0.297 -1.249,-0.71 -1.543,-0.918 -0.294,-0.207 -0.627,-0.377 -0.739,-0.377 -0.112,0 -0.235,-0.077 -0.271,-0.171 -0.037,-0.094 -0.483,-0.401 -0.991,-0.683 -1.59,-0.881 -1.896,-1.059 -2,-1.163 -0.056,-0.055 -0.373,-0.237 -0.706,-0.403 -0.332,-0.166 -0.65,-0.356 -0.705,-0.422 -0.109,-0.131 -1.829,-1.119 -2.569,-1.476 -0.249,-0.12 -0.453,-0.287 -0.454,-0.37 -10e-4,-0.083 -0.089,-0.151 -0.195,-0.151 -0.107,0 -1.026,-0.499 -2.042,-1.109 -1.017,-0.61 -1.891,-1.109 -1.943,-1.109 -0.052,0 -0.38,-0.204 -0.729,-0.453 -0.845,-0.604 -1.766,-1.143 -2.199,-1.29 -0.194,-0.065 -0.353,-0.176 -0.353,-0.247 0,-0.071 -0.295,-0.257 -0.655,-0.414 -0.361,-0.157 -0.701,-0.347 -0.757,-0.422 -0.102,-0.14 -1.752,-1.098 -2.569,-1.492 -0.248,-0.12 -0.452,-0.286 -0.453,-0.369 -10e-4,-0.083 -0.091,-0.152 -0.199,-0.152 -0.109,0 -0.695,-0.317 -1.301,-0.705 -0.607,-0.388 -1.198,-0.706 -1.315,-0.706 -0.116,0 -0.211,-0.068 -0.211,-0.152 0,-0.084 -0.295,-0.282 -0.655,-0.44 -0.361,-0.158 -1.269,-0.679 -2.018,-1.158 -0.75,-0.479 -1.453,-0.871 -1.563,-0.871 -0.11,0 -0.199,-0.068 -0.199,-0.152 0,-0.084 -0.295,-0.281 -0.656,-0.438 -0.36,-0.156 -0.7,-0.337 -0.756,-0.402 -0.171,-0.198 -0.889,-0.626 -1.26,-0.751 -0.194,-0.065 -0.353,-0.182 -0.353,-0.259 0,-0.077 -0.317,-0.265 -0.705,-0.417 -0.388,-0.152 -0.706,-0.34 -0.706,-0.417 0,-0.078 -0.159,-0.193 -0.353,-0.257 -0.194,-0.063 -0.715,-0.347 -1.159,-0.631 -0.444,-0.284 -0.965,-0.571 -1.159,-0.637 -0.194,-0.067 -0.353,-0.179 -0.353,-0.25 0,-0.071 -0.295,-0.259 -0.655,-0.418 -0.361,-0.159 -1.261,-0.68 -2.001,-1.158 -0.741,-0.478 -1.444,-0.869 -1.563,-0.869 -0.119,0 -0.217,-0.08 -0.217,-0.178 0,-0.098 -0.158,-0.23 -0.352,-0.294 -0.424,-0.139 -2.046,-1.081 -2.47,-1.435 -0.166,-0.139 -0.597,-0.378 -0.958,-0.532 -0.36,-0.155 -0.655,-0.339 -0.655,-0.41 0,-0.07 -0.159,-0.18 -0.353,-0.244 -0.194,-0.064 -0.716,-0.348 -1.159,-0.632 -0.444,-0.283 -0.965,-0.57 -1.159,-0.637 -0.194,-0.066 -0.353,-0.179 -0.353,-0.25 0,-0.071 -0.295,-0.256 -0.655,-0.413 -0.361,-0.156 -1.176,-0.634 -1.811,-1.062 -0.635,-0.428 -1.316,-0.836 -1.512,-0.908 -0.196,-0.071 -0.736,-0.386 -1.2,-0.7 -0.463,-0.314 -0.892,-0.571 -0.953,-0.571 -0.061,0 -0.608,-0.318 -1.214,-0.706 -0.607,-0.388 -1.199,-0.706 -1.315,-0.706 -0.116,0 -0.211,-0.08 -0.211,-0.178 0,-0.098 -0.159,-0.231 -0.353,-0.297 -0.434,-0.146 -1.354,-0.685 -2.199,-1.289 -0.35,-0.249 -0.691,-0.453 -0.759,-0.453 -0.068,0 -0.721,-0.363 -1.451,-0.807 C 10.234,11.452 9.555,11.089 9.455,11.089 9.356,11.089 9.274,11 9.274,10.891 9.274,10.782 9.047,10.636 8.77,10.567 8.493,10.497 8.266,10.37 8.266,10.284 8.266,10.198 8.107,10.076 7.913,10.012 7.719,9.949 7.107,9.624 6.552,9.292 5.998,8.959 5.476,8.682 5.393,8.678 5.31,8.673 5.242,105.746 5.242,224.395"
         stroke="none"
         fill="#ec4434"
         fill-rule="evenodd" /><path
         id="path3-8"
         d="m 395.288,9.195 c -0.43,0.241 -0.838,0.516 -0.908,0.612 -0.069,0.095 -0.231,0.193 -0.36,0.217 -0.129,0.025 -0.838,0.388 -1.575,0.807 -0.737,0.419 -1.562,0.88 -1.832,1.025 -0.271,0.144 -0.492,0.354 -0.492,0.465 0,0.112 -0.08,0.153 -0.178,0.093 -0.097,-0.06 -0.51,0.116 -0.916,0.391 -0.406,0.276 -0.821,0.501 -0.921,0.501 -0.101,0 -0.263,0.145 -0.362,0.321 -0.099,0.176 -0.217,0.297 -0.262,0.269 -0.156,-0.097 -1.595,0.666 -1.595,0.845 0,0.098 -0.187,0.178 -0.415,0.178 -0.228,0 -0.359,0.091 -0.291,0.202 0.069,0.111 -0.002,0.202 -0.157,0.202 -0.408,0 -2.385,1.114 -2.263,1.275 0.056,0.075 0.045,0.094 -0.024,0.043 -0.183,-0.134 -1.285,0.469 -1.285,0.703 0,0.108 -0.187,0.196 -0.416,0.196 -0.262,0 -0.362,0.086 -0.271,0.233 0.09,0.145 0.055,0.178 -0.091,0.087 -0.134,-0.082 -0.807,0.254 -1.557,0.778 -0.727,0.508 -1.251,0.809 -1.165,0.669 0.086,-0.14 -0.067,-0.098 -0.34,0.094 -0.272,0.192 -0.798,0.501 -1.169,0.687 -0.37,0.186 -0.72,0.46 -0.777,0.608 -0.057,0.148 -0.177,0.224 -0.268,0.168 -0.09,-0.056 -0.301,0.035 -0.468,0.203 -0.168,0.167 -0.372,0.304 -0.454,0.304 -0.083,0 -0.331,0.159 -0.553,0.353 -0.288,0.251 -0.354,0.266 -0.229,0.05 0.195,-0.339 -0.456,0.094 -0.757,0.504 -0.082,0.111 -0.15,0.128 -0.152,0.037 -0.001,-0.091 -0.252,0.003 -0.557,0.209 -0.305,0.205 -0.801,0.497 -1.102,0.649 -0.301,0.151 -0.499,0.354 -0.439,0.451 0.06,0.097 0.034,0.156 -0.057,0.131 -0.355,-0.096 -1.073,0.276 -0.943,0.487 0.087,0.141 0.019,0.176 -0.185,0.098 -0.18,-0.069 -0.545,0.05 -0.821,0.268 -0.274,0.216 -0.564,0.392 -0.644,0.392 -0.081,0 -0.588,0.318 -1.128,0.706 -0.541,0.388 -1.121,0.705 -1.291,0.705 -0.169,0 -0.358,0.131 -0.419,0.29 -0.064,0.167 -0.247,0.238 -0.43,0.167 -0.211,-0.081 -0.27,-0.042 -0.173,0.114 0.088,0.143 0.018,0.236 -0.178,0.236 -0.278,0 -1.213,0.515 -2.837,1.563 -0.215,0.139 -0.596,0.34 -0.845,0.448 -0.25,0.108 -0.454,0.287 -0.454,0.397 0,0.11 -0.116,0.155 -0.259,0.101 -0.142,-0.055 -0.444,0.073 -0.671,0.284 -0.226,0.211 -0.608,0.446 -0.849,0.522 -0.241,0.077 -0.438,0.224 -0.438,0.327 0,0.104 -0.069,0.173 -0.152,0.153 -0.314,-0.073 -1.242,0.506 -1.121,0.701 0.069,0.112 0.029,0.144 -0.089,0.071 -0.118,-0.073 -0.697,0.185 -1.287,0.573 -0.59,0.389 -1.154,0.707 -1.255,0.707 -0.1,0 -0.329,0.158 -0.508,0.352 -0.18,0.194 -0.488,0.38 -0.685,0.414 -0.501,0.084 -1.758,0.848 -1.758,1.068 0,0.1 -0.136,0.182 -0.303,0.182 -0.166,0 -0.302,0.096 -0.302,0.213 0,0.118 -0.091,0.158 -0.202,0.089 -0.111,-0.068 -0.201,-0.023 -0.201,0.101 0,0.124 -0.092,0.169 -0.203,0.1 -0.112,-0.069 -0.258,0.016 -0.324,0.188 -0.066,0.173 -0.202,0.264 -0.301,0.203 -0.099,-0.062 -0.18,-0.016 -0.18,0.102 0,0.117 -0.185,0.213 -0.41,0.213 -0.225,0 -0.454,0.117 -0.509,0.26 -0.055,0.143 -0.292,0.275 -0.527,0.292 -0.234,0.018 -0.668,0.264 -0.963,0.547 -0.295,0.283 -0.645,0.514 -0.778,0.514 -0.132,0 -0.241,0.106 -0.241,0.235 0,0.13 -0.058,0.178 -0.129,0.107 -0.155,-0.155 -1.282,0.479 -1.282,0.722 0,0.093 -0.092,0.113 -0.203,0.044 -0.217,-0.134 -1.403,0.612 -1.674,1.054 -0.09,0.146 -0.246,0.216 -0.345,0.154 -0.195,-0.12 -1.013,0.278 -1.249,0.608 -0.079,0.111 -0.215,0.209 -0.302,0.218 -0.397,0.042 -1.267,0.495 -1.267,0.659 0,0.101 -0.295,0.302 -0.656,0.447 -0.36,0.146 -0.729,0.385 -0.819,0.533 -0.09,0.147 -0.238,0.222 -0.33,0.165 -0.091,-0.056 -0.277,0.031 -0.413,0.195 -0.136,0.164 -0.323,0.251 -0.416,0.194 -0.093,-0.057 -0.269,0.082 -0.391,0.31 -0.122,0.228 -0.318,0.355 -0.436,0.283 -0.117,-0.073 -0.271,-0.053 -0.342,0.044 -0.071,0.098 -0.56,0.402 -1.087,0.677 -0.526,0.275 -0.957,0.57 -0.957,0.655 0,0.086 -0.136,0.156 -0.303,0.156 -0.166,0 -0.302,0.096 -0.302,0.213 0,0.118 -0.088,0.16 -0.194,0.094 -0.107,-0.066 -0.366,0.051 -0.576,0.261 -0.21,0.21 -0.625,0.443 -0.923,0.518 -0.33,0.082 -0.487,0.224 -0.401,0.362 0.081,0.131 0.05,0.171 -0.074,0.095 -0.214,-0.132 -3.14,1.55 -2.978,1.712 0.048,0.047 -0.141,0.105 -0.42,0.128 -0.278,0.023 -0.796,0.26 -1.149,0.527 -0.354,0.267 -0.984,0.676 -1.4,0.908 -0.416,0.233 -1.096,0.614 -1.512,0.848 -0.416,0.233 -0.899,0.55 -1.074,0.705 -0.176,0.155 -0.43,0.282 -0.567,0.282 -0.136,0 -0.192,0.09 -0.125,0.199 0.068,0.11 -0.003,0.151 -0.159,0.091 -0.155,-0.059 -0.5,0.122 -0.766,0.402 -0.267,0.281 -0.636,0.512 -0.821,0.514 -0.544,0.006 -0.981,0.232 -0.852,0.442 0.066,0.106 -0.002,0.166 -0.152,0.133 -0.15,-0.033 -0.681,0.22 -1.18,0.564 -0.499,0.343 -1.112,0.688 -1.363,0.767 -0.252,0.079 -0.406,0.226 -0.343,0.328 0.063,0.101 -0.015,0.135 -0.173,0.074 -0.158,-0.06 -0.344,0.04 -0.415,0.225 -0.071,0.185 -0.242,0.292 -0.38,0.239 -0.297,-0.114 -0.791,0.351 -0.59,0.556 0.077,0.078 0.003,0.115 -0.163,0.081 -0.363,-0.072 -1.613,0.562 -1.613,0.818 0,0.099 -0.272,0.24 -0.605,0.313 -0.333,0.073 -0.605,0.232 -0.605,0.352 0,0.121 -0.057,0.162 -0.128,0.091 -0.071,-0.071 -0.366,0.031 -0.655,0.227 -0.29,0.195 -0.877,0.533 -1.305,0.75 -0.428,0.217 -0.824,0.508 -0.879,0.647 -0.055,0.138 -0.267,0.252 -0.472,0.252 -0.204,0 -0.464,0.158 -0.577,0.352 -0.113,0.195 -0.208,0.28 -0.211,0.191 -0.009,-0.215 -1.216,0.502 -1.216,0.722 0,0.093 -0.088,0.115 -0.196,0.049 -0.181,-0.112 -1.179,0.404 -1.421,0.734 -0.057,0.078 -0.758,0.479 -1.557,0.89 -0.801,0.412 -1.396,0.839 -1.326,0.952 0.073,0.117 0.026,0.142 -0.108,0.059 -0.129,-0.08 -0.473,0.042 -0.764,0.271 -0.291,0.229 -0.614,0.417 -0.717,0.417 -0.104,0 -0.477,0.22 -0.83,0.489 -0.353,0.269 -0.711,0.494 -0.795,0.5 -0.349,0.024 -1.359,0.65 -1.359,0.842 0,0.115 -0.081,0.158 -0.18,0.097 -0.1,-0.061 -0.235,0.03 -0.301,0.203 -0.067,0.172 -0.212,0.257 -0.324,0.188 -0.112,-0.069 -0.203,-0.036 -0.203,0.072 0,0.109 -0.272,0.257 -0.605,0.331 -0.332,0.073 -0.605,0.231 -0.605,0.352 0,0.12 -0.056,0.162 -0.125,0.093 -0.069,-0.069 -0.418,0.097 -0.775,0.37 -0.357,0.272 -0.755,0.495 -0.883,0.495 -0.128,0 -0.233,0.091 -0.233,0.202 0,0.111 -0.15,0.201 -0.333,0.201 -0.184,0 -0.632,0.227 -0.995,0.504 -0.364,0.277 -0.748,0.504 -0.854,0.504 -0.107,0 -0.248,0.142 -0.315,0.315 -0.066,0.174 -0.211,0.26 -0.322,0.191 -0.111,-0.068 -0.588,0.142 -1.06,0.467 -0.472,0.324 -0.906,0.579 -0.964,0.565 -0.058,-0.014 -0.325,0.179 -0.593,0.428 -0.267,0.25 -0.605,0.454 -0.751,0.454 -0.145,0 -0.264,0.096 -0.264,0.213 0,0.118 -0.081,0.164 -0.179,0.103 -0.098,-0.061 -0.29,0.024 -0.426,0.188 -0.136,0.164 -0.314,0.256 -0.396,0.206 -0.081,-0.05 -0.343,0.09 -0.582,0.313 -0.238,0.222 -0.433,0.35 -0.433,0.284 0,-0.066 -0.273,0.04 -0.605,0.237 -0.333,0.196 -0.605,0.434 -0.605,0.527 0,0.094 -0.088,0.116 -0.194,0.05 -0.107,-0.066 -0.379,0.065 -0.605,0.291 -0.226,0.225 -0.542,0.41 -0.703,0.41 -0.161,0 -0.381,0.159 -0.49,0.353 -0.109,0.194 -0.249,0.33 -0.312,0.302 -0.301,-0.131 -0.527,-0.025 -0.397,0.186 0.098,0.158 0.037,0.194 -0.184,0.109 -0.202,-0.078 -0.405,0.007 -0.523,0.218 -0.106,0.189 -0.267,0.333 -0.358,0.318 -0.226,-0.036 -0.85,0.255 -1.577,0.733 -0.333,0.219 -0.831,0.51 -1.109,0.648 -0.277,0.137 -0.549,0.303 -0.605,0.368 -0.055,0.065 -0.564,0.347 -1.131,0.626 -0.566,0.279 -1.292,0.684 -1.613,0.901 -0.32,0.217 -0.829,0.518 -1.13,0.669 -0.301,0.151 -0.491,0.366 -0.422,0.478 0.069,0.111 0.027,0.142 -0.092,0.068 -0.119,-0.073 -0.337,-0.013 -0.484,0.135 -0.278,0.278 -0.422,0.34 -0.785,0.34 -0.117,0 -0.148,0.105 -0.069,0.233 0.085,0.138 0.055,0.178 -0.073,0.099 -0.119,-0.074 -0.339,-0.02 -0.489,0.12 -0.151,0.139 -0.407,0.283 -0.571,0.32 -0.164,0.036 -0.441,0.195 -0.616,0.353 -0.175,0.157 -0.407,0.286 -0.514,0.286 -0.108,0 -0.309,0.114 -0.448,0.252 -0.139,0.139 -0.316,0.26 -0.393,0.27 -0.403,0.049 -0.831,0.35 -0.73,0.512 0.063,0.102 0.04,0.168 -0.052,0.146 -0.26,-0.063 -1.275,0.477 -1.275,0.679 0,0.1 -0.087,0.127 -0.194,0.061 -0.187,-0.115 -2.457,1.249 -2.595,1.559 -0.037,0.084 -0.147,0.103 -0.245,0.043 -0.097,-0.06 -0.362,0.076 -0.587,0.301 -0.226,0.226 -0.456,0.411 -0.512,0.411 -0.055,0 -0.197,0 -0.314,0 -0.117,0 -0.158,0.09 -0.09,0.199 0.067,0.11 0.002,0.153 -0.147,0.096 -0.148,-0.057 -0.466,0.08 -0.707,0.305 -0.241,0.224 -0.528,0.408 -0.637,0.408 -0.317,0 -1.633,0.828 -1.633,1.028 0,0.1 -0.174,0.182 -0.386,0.182 -0.213,0 -0.417,0.073 -0.454,0.163 -0.037,0.09 -0.521,0.392 -1.075,0.671 -1.818,0.915 -3.02,1.625 -3.258,1.924 -0.129,0.161 -0.288,0.285 -0.355,0.275 -0.166,-0.024 -1.403,0.618 -1.528,0.793 -0.056,0.078 -0.487,0.309 -0.958,0.515 -0.471,0.205 -0.857,0.452 -0.857,0.548 0,0.096 -0.085,0.122 -0.189,0.058 -0.104,-0.064 -0.263,-0.001 -0.353,0.141 -0.09,0.142 -0.504,0.437 -0.92,0.655 -0.415,0.218 -0.756,0.477 -0.756,0.574 0,0.098 -0.136,0.125 -0.302,0.061 -0.166,-0.063 -0.302,-0.028 -0.302,0.08 0,0.107 -0.114,0.197 -0.253,0.2 -0.422,0.009 -2.369,1.337 -2.213,1.511 0.081,0.089 0.046,0.104 -0.077,0.034 -0.297,-0.17 -1.285,0.299 -1.287,0.611 0,0.135 -0.136,0.194 -0.302,0.13 -0.172,-0.066 -0.354,0.024 -0.425,0.208 -0.068,0.178 -0.278,0.324 -0.466,0.324 -0.189,0 -0.655,0.231 -1.037,0.513 -0.382,0.282 -1.171,0.755 -1.753,1.05 -0.582,0.295 -1.058,0.614 -1.058,0.708 0,0.095 -0.092,0.115 -0.203,0.046 -0.112,-0.069 -0.258,0.017 -0.324,0.19 -0.067,0.173 -0.288,0.315 -0.491,0.315 -0.204,0 -0.427,0.092 -0.496,0.205 -0.07,0.112 -0.416,0.337 -0.768,0.5 -0.703,0.323 -1.391,0.737 -1.549,0.931 -0.056,0.068 -0.328,0.192 -0.605,0.274 -0.277,0.082 -0.644,0.326 -0.816,0.543 -0.172,0.216 -0.444,0.416 -0.605,0.444 -0.622,0.108 -1.2,0.364 -1.2,0.531 0,0.095 -0.204,0.237 -0.454,0.314 -0.249,0.077 -0.816,0.378 -1.26,0.669 -0.443,0.291 -1.078,0.665 -1.411,0.831 -0.333,0.166 -0.65,0.347 -0.706,0.403 -0.365,0.366 -1.438,1.011 -1.304,0.784 0.16,-0.272 -0.69,0.359 -0.936,0.695 -0.068,0.093 -0.204,0.172 -0.302,0.176 -0.434,0.016 -1.042,0.357 -1.152,0.645 -0.067,0.173 -0.246,0.266 -0.399,0.208 -0.152,-0.059 -0.394,0.034 -0.536,0.205 -0.142,0.171 -0.384,0.311 -0.538,0.311 -0.153,0 -0.47,0.22 -0.704,0.489 -0.234,0.269 -0.531,0.448 -0.661,0.399 -0.13,-0.05 -0.438,0.097 -0.685,0.328 -0.247,0.23 -0.539,0.363 -0.648,0.295 -0.11,-0.068 -0.199,-0.038 -0.199,0.066 0,0.104 -0.28,0.305 -0.622,0.447 -0.342,0.141 -0.75,0.386 -0.907,0.543 -0.245,0.244 -0.286,9.569 -0.286,65.678 v 65.393 l 0.555,0.104 c 0.955,0.18 2.92,0.385 4.284,0.448 0.721,0.034 1.583,0.114 1.915,0.179 0.333,0.065 1.364,0.161 2.29,0.214 0.927,0.052 1.925,0.147 2.218,0.211 0.293,0.063 1.168,0.149 1.944,0.191 0.776,0.041 1.774,0.131 2.218,0.2 0.443,0.069 1.056,0.142 1.361,0.161 0.305,0.02 0.554,0.108 0.554,0.195 0,0.088 0.174,0.066 0.387,-0.048 0.257,-0.137 0.41,-0.139 0.454,-0.005 0.038,0.113 0.976,0.224 2.133,0.251 1.136,0.026 2.066,0.1 2.066,0.163 0,0.112 0.535,0.161 2.47,0.226 0.527,0.018 0.958,0.107 0.958,0.198 0,0.218 0.463,0.122 0.652,-0.136 0.093,-0.127 0.149,-0.113 0.151,0.038 0.003,0.229 0.652,0.302 2.483,0.28 0.421,-0.005 0.725,0.057 0.675,0.139 -0.05,0.081 0.464,0.177 1.142,0.212 0.678,0.036 1.613,0.136 2.077,0.223 0.463,0.086 1.303,0.138 1.866,0.114 0.563,-0.023 0.989,0.013 0.948,0.081 -0.042,0.067 0.346,0.144 0.862,0.17 1.287,0.064 2.547,0.182 3.862,0.362 0.609,0.083 1.653,0.162 2.318,0.175 0.665,0.013 1.31,0.088 1.433,0.167 0.122,0.079 0.825,0.169 1.562,0.2 0.736,0.031 1.339,0.102 1.339,0.158 0.001,0.055 0.477,0.112 1.059,0.127 2.087,0.052 3.337,0.178 3.245,0.326 -0.051,0.083 0.003,0.151 0.12,0.151 0.118,0 0.215,-0.113 0.217,-0.252 0.002,-0.196 0.038,-0.197 0.159,-0.006 0.086,0.135 0.561,0.253 1.055,0.263 2.079,0.04 2.771,0.105 2.68,0.253 -0.054,0.086 0.386,0.155 0.977,0.153 0.59,-0.002 1.436,0.042 1.88,0.098 0.444,0.056 1.305,0.146 1.915,0.199 0.61,0.054 1.472,0.143 1.916,0.198 0.443,0.055 1.153,0.142 1.576,0.193 0.424,0.051 0.957,0.152 1.185,0.224 0.276,0.088 0.368,0.058 0.276,-0.091 -0.076,-0.123 -0.042,-0.224 0.076,-0.224 0.117,0 0.213,0.081 0.213,0.179 0,0.098 0.34,0.19 0.756,0.205 2.275,0.081 2.672,0.114 2.672,0.219 0,0.109 0.425,0.141 3.175,0.241 0.582,0.021 1.059,0.123 1.059,0.227 0,0.104 0.153,0.064 0.341,-0.088 0.228,-0.185 0.291,-0.194 0.19,-0.026 -0.104,0.172 -0.006,0.243 0.314,0.227 0.256,-0.012 1.055,0.048 1.775,0.134 0.721,0.086 1.719,0.171 2.218,0.189 0.499,0.019 1.225,0.096 1.613,0.172 1.35,0.265 2.218,0.287 2.221,0.058 0.002,-0.156 0.048,-0.154 0.152,0.009 0.082,0.129 0.375,0.234 0.652,0.234 0.277,0 1.21,0.102 2.074,0.227 0.864,0.124 1.658,0.172 1.764,0.107 0.107,-0.066 0.194,-0.012 0.194,0.119 0,0.176 0.07,0.18 0.27,0.013 0.149,-0.123 0.332,-0.163 0.407,-0.088 0.164,0.164 0.605,0.227 2.347,0.34 0.721,0.047 1.446,0.139 1.613,0.205 0.166,0.066 0.945,0.151 1.731,0.19 0.787,0.038 1.535,0.135 1.664,0.214 0.132,0.082 0.235,0.029 0.237,-0.119 0.002,-0.161 0.061,-0.186 0.151,-0.063 0.081,0.111 0.466,0.214 0.854,0.229 1.204,0.047 2.601,0.24 2.849,0.393 0.155,0.096 0.183,0.059 0.081,-0.106 -0.124,-0.202 -0.063,-0.204 0.3,-0.009 0.254,0.136 0.802,0.198 1.234,0.14 0.428,-0.057 0.778,-0.041 0.778,0.035 0,0.077 0.295,0.156 0.655,0.177 0.36,0.021 0.973,0.079 1.361,0.13 0.388,0.05 1.341,0.151 2.117,0.223 0.776,0.072 1.865,0.175 2.419,0.229 0.555,0.055 1.429,0.127 1.942,0.16 0.514,0.033 1.013,0.107 1.109,0.164 0.096,0.057 0.629,0.109 1.183,0.116 0.554,0.006 1.462,0.089 2.016,0.184 0.555,0.094 1.303,0.155 1.663,0.136 0.374,-0.021 0.657,0.062 0.659,0.192 0.002,0.136 0.073,0.118 0.176,-0.045 0.121,-0.191 0.215,-0.206 0.312,-0.05 0.086,0.139 0.436,0.176 0.931,0.097 0.465,-0.075 0.902,-0.037 1.056,0.091 0.145,0.12 0.531,0.193 0.858,0.161 0.327,-0.031 0.765,0.027 0.972,0.13 0.233,0.116 0.333,0.115 0.261,-0.001 -0.064,-0.104 0.012,-0.188 0.169,-0.188 0.156,0 0.239,0.074 0.183,0.164 -0.056,0.09 0.288,0.164 0.765,0.164 1.191,-10e-4 2.042,0.103 2.334,0.283 0.14,0.087 0.246,0.05 0.246,-0.086 0,-0.168 0.074,-0.177 0.252,-0.029 0.139,0.115 0.706,0.226 1.26,0.246 0.555,0.021 1.348,0.051 1.764,0.067 0.416,0.017 0.756,0.103 0.756,0.191 0,0.088 0.113,0.145 0.252,0.127 0.139,-0.018 0.592,-0.022 1.008,-0.009 l 0.756,0.024 v 43.732 c 0,34.874 -0.051,43.724 -0.252,43.69 -0.138,-0.023 -0.433,-0.142 -0.655,-0.264 -0.222,-0.122 -0.585,-0.254 -0.807,-0.293 -0.221,-0.039 -0.462,-0.151 -0.533,-0.251 -0.159,-0.218 -1.548,-0.757 -2.037,-0.79 -0.194,-0.012 -0.353,-0.077 -0.353,-0.144 0,-0.153 -1.436,-0.717 -1.653,-0.649 -0.089,0.027 -0.161,-0.041 -0.161,-0.152 0,-0.111 -0.08,-0.201 -0.176,-0.201 -0.097,0 -0.619,-0.196 -1.16,-0.435 -0.54,-0.239 -1.007,-0.419 -1.035,-0.399 -0.029,0.019 -0.313,-0.099 -0.63,-0.263 -0.318,-0.164 -0.634,-0.242 -0.704,-0.172 -0.069,0.069 -0.126,0.03 -0.126,-0.087 0,-0.118 -0.141,-0.268 -0.313,-0.334 -0.211,-0.081 -0.266,-0.039 -0.167,0.13 0.08,0.137 -0.028,0.102 -0.241,-0.078 -0.214,-0.18 -0.751,-0.482 -1.194,-0.671 -0.444,-0.189 -1.203,-0.522 -1.688,-0.74 -0.485,-0.219 -0.928,-0.351 -0.984,-0.294 -0.057,0.056 -0.5,-0.129 -0.984,-0.413 -0.484,-0.284 -0.882,-0.44 -0.884,-0.346 -10e-4,0.094 -0.073,0.059 -0.16,-0.077 -0.086,-0.135 -0.379,-0.288 -0.652,-0.338 -0.272,-0.05 -0.541,-0.108 -0.596,-0.129 -0.055,-0.022 -0.169,-0.028 -0.252,-0.015 -0.083,0.013 -0.151,-0.067 -0.151,-0.178 0,-0.111 -0.164,-0.202 -0.363,-0.202 -0.2,0 -0.472,-0.109 -0.605,-0.242 -0.205,-0.205 -2.323,-1.08 -2.964,-1.224 -0.111,-0.025 -0.247,-0.103 -0.302,-0.172 -0.205,-0.258 -3.07,-1.381 -3.246,-1.273 -0.1,0.062 -0.181,0.011 -0.181,-0.113 0,-0.124 -0.091,-0.169 -0.202,-0.101 -0.111,0.069 -0.202,0.029 -0.202,-0.089 0,-0.117 -0.079,-0.213 -0.177,-0.213 -0.097,0 -0.528,-0.153 -0.957,-0.341 -0.43,-0.187 -0.826,-0.353 -0.882,-0.369 -0.055,-0.016 -0.373,-0.144 -0.705,-0.285 -0.333,-0.14 -0.741,-0.284 -0.908,-0.32 -0.166,-0.036 -0.348,-0.083 -0.403,-0.105 -0.055,-0.021 -0.176,-0.026 -0.267,-0.01 -0.091,0.016 -0.117,-0.052 -0.056,-0.15 0.152,-0.245 -1.441,-0.846 -1.84,-0.693 -0.214,0.082 -0.274,0.045 -0.177,-0.112 0.084,-0.136 0.03,-0.236 -0.126,-0.236 -0.149,0 -0.621,-0.179 -1.049,-0.397 -0.428,-0.218 -0.856,-0.349 -0.95,-0.29 -0.095,0.058 -0.172,0.019 -0.172,-0.088 0,-0.291 -2.599,-1.279 -2.891,-1.098 -0.108,0.067 -0.131,0.016 -0.052,-0.112 0.086,-0.138 0.016,-0.233 -0.17,-0.233 -0.521,0 -0.594,-0.028 -1.208,-0.465 -0.325,-0.231 -0.526,-0.315 -0.446,-0.187 0.079,0.129 -0.239,0.016 -0.708,-0.25 -0.469,-0.267 -0.926,-0.439 -1.016,-0.384 -0.089,0.055 -0.162,0.013 -0.162,-0.093 0,-0.257 -1.198,-0.668 -1.466,-0.502 -0.121,0.075 -0.149,0.031 -0.066,-0.104 0.091,-0.147 -0.007,-0.232 -0.266,-0.232 -0.226,0 -0.889,-0.251 -1.474,-0.558 -1.162,-0.609 -2.331,-1.084 -2.726,-1.108 -0.139,-0.008 -0.252,-0.09 -0.252,-0.183 0,-0.092 -0.129,-0.168 -0.286,-0.168 -0.157,0 -0.748,-0.231 -1.312,-0.515 -0.564,-0.283 -1.116,-0.459 -1.226,-0.391 -0.11,0.068 -0.2,0.022 -0.2,-0.102 0,-0.124 -0.091,-0.169 -0.202,-0.1 -0.111,0.068 -0.202,0.013 -0.202,-0.123 0,-0.136 -0.056,-0.191 -0.125,-0.122 -0.068,0.068 -0.263,-0.014 -0.433,-0.184 -0.169,-0.17 -0.476,-0.264 -0.682,-0.211 -0.205,0.054 -0.322,0.016 -0.26,-0.085 0.096,-0.156 -0.308,-0.271 -0.749,-0.213 -0.072,0.01 -0.242,-0.116 -0.377,-0.279 -0.135,-0.162 -0.454,-0.296 -0.708,-0.296 -0.255,0 -0.493,-0.068 -0.53,-0.151 -0.113,-0.255 -1.595,-0.871 -1.796,-0.746 -0.104,0.064 -0.244,-0.025 -0.31,-0.199 -0.067,-0.173 -0.338,-0.315 -0.604,-0.315 -0.265,0 -0.482,-0.1 -0.482,-0.223 0,-0.123 -0.136,-0.171 -0.303,-0.107 -0.166,0.064 -0.303,0.051 -0.304,-0.029 -0.002,-0.213 -1.034,-0.656 -1.236,-0.531 -0.095,0.059 -0.173,0.021 -0.173,-0.084 0,-0.106 -0.141,-0.246 -0.313,-0.312 -0.212,-0.082 -0.266,-0.04 -0.167,0.129 0.08,0.138 -0.029,0.098 -0.242,-0.087 -0.488,-0.424 -2.419,-1.194 -2.583,-1.029 -0.067,0.067 -0.123,0.017 -0.123,-0.113 0,-0.129 -0.1,-0.235 -0.222,-0.235 -0.123,0 -0.66,-0.219 -1.193,-0.487 -0.534,-0.268 -1.021,-0.437 -1.083,-0.375 -0.062,0.062 -0.237,0.01 -0.388,-0.115 -0.152,-0.126 -0.336,-0.169 -0.408,-0.096 -0.073,0.073 -0.133,0.037 -0.133,-0.078 0,-0.224 -1.064,-0.731 -1.534,-0.731 -0.154,0 -0.281,-0.053 -0.281,-0.118 0,-0.228 -1.202,-0.649 -1.437,-0.504 -0.133,0.083 -0.185,0.061 -0.117,-0.049 0.11,-0.178 -1.159,-0.78 -1.334,-0.634 -0.041,0.034 -0.241,-0.074 -0.446,-0.24 -0.331,-0.269 -0.355,-0.269 -0.218,0 0.09,0.175 0.033,0.153 -0.134,-0.051 -0.159,-0.194 -0.433,-0.352 -0.608,-0.352 -0.176,0 -0.379,-0.097 -0.452,-0.216 -0.073,-0.118 -0.265,-0.165 -0.426,-0.103 -0.163,0.063 -0.238,0.024 -0.169,-0.087 0.068,-0.11 -0.065,-0.199 -0.296,-0.199 -0.23,0 -0.757,-0.208 -1.171,-0.461 -1.01,-0.619 -1.918,-1.005 -1.759,-0.748 0.07,0.114 -0.356,-0.078 -0.945,-0.426 -0.59,-0.348 -1.118,-0.621 -1.173,-0.609 -0.056,0.013 -0.396,-0.073 -0.756,-0.192 l -0.655,-0.217 v -20.716 c 0,-16.421 -0.053,-20.725 -0.252,-20.752 -0.139,-0.02 -0.797,-0.079 -1.462,-0.132 -0.665,-0.053 -1.683,-0.219 -2.262,-0.37 -0.745,-0.195 -1.079,-0.21 -1.144,-0.054 -0.064,0.155 -0.143,0.149 -0.263,-0.019 -0.094,-0.132 -0.804,-0.292 -1.578,-0.356 -1.647,-0.135 -2.683,-0.273 -3.141,-0.419 -0.18,-0.057 -0.862,-0.147 -1.514,-0.201 -0.653,-0.053 -1.459,-0.179 -1.792,-0.279 -0.332,-0.1 -1.058,-0.183 -1.613,-0.185 -0.554,-0.002 -1.397,-0.144 -1.873,-0.315 -0.475,-0.171 -0.81,-0.223 -0.744,-0.116 0.067,0.108 -0.02,0.196 -0.193,0.196 -0.173,0 -0.315,-0.069 -0.315,-0.152 0,-0.083 -0.249,-0.171 -0.554,-0.194 -0.793,-0.061 -2.158,-0.229 -2.218,-0.272 -0.134,-0.1 -2.233,-0.424 -3.377,-0.522 -1.388,-0.12 -1.827,-0.193 -2.076,-0.348 -0.136,-0.084 -0.242,-0.045 -0.242,0.089 0,0.177 -0.079,0.173 -0.304,-0.014 -0.168,-0.139 -0.839,-0.263 -1.493,-0.277 -0.653,-0.013 -1.148,-0.089 -1.099,-0.169 0.05,-0.08 -0.209,-0.149 -0.574,-0.153 -0.719,-0.007 -2.075,-0.146 -2.075,-0.212 0,-0.023 -0.363,-0.07 -0.806,-0.106 -0.973,-0.078 -1.495,-0.18 -1.969,-0.385 -0.196,-0.084 -0.536,-0.106 -0.757,-0.048 -0.221,0.057 -0.87,-0.019 -1.442,-0.17 -0.998,-0.263 -2.877,-0.53 -4.048,-0.574 -0.305,-0.011 -0.554,-0.078 -0.554,-0.149 0,-0.07 -0.25,-0.13 -0.555,-0.133 -0.938,-0.01 -2.407,-0.181 -2.606,-0.304 -0.103,-0.064 -0.455,-0.109 -0.782,-0.1 -0.326,0.008 -1.252,-0.103 -2.056,-0.247 -0.805,-0.144 -1.508,-0.218 -1.562,-0.164 -0.054,0.055 -0.1,17.55 -0.102,38.878 l -0.003,38.779 0.519,0.341 c 0.285,0.187 0.876,0.458 1.312,0.602 0.437,0.144 0.794,0.34 0.794,0.436 0,0.163 0.697,0.506 1.077,0.53 0.093,0.006 0.284,0.167 0.423,0.358 0.14,0.19 0.35,0.286 0.469,0.213 0.118,-0.073 0.245,-0.048 0.282,0.055 0.038,0.103 0.204,0.217 0.37,0.253 0.167,0.036 0.421,0.225 0.566,0.419 0.145,0.194 0.358,0.353 0.473,0.353 0.115,0 0.473,0.187 0.795,0.417 0.322,0.229 0.586,0.363 0.586,0.297 0,-0.065 0.227,0.03 0.504,0.211 0.277,0.182 0.504,0.275 0.504,0.207 0,-0.069 0.181,0.057 0.403,0.279 0.222,0.222 0.585,0.403 0.806,0.403 0.222,0 0.404,0.083 0.404,0.184 0,0.155 2.347,1.503 4.536,2.605 0.333,0.168 0.65,0.357 0.706,0.421 0.192,0.223 1.056,0.653 1.469,0.733 0.229,0.044 0.49,0.195 0.579,0.337 0.09,0.141 0.165,0.188 0.166,0.105 0.002,-0.083 0.185,0.03 0.407,0.252 0.221,0.222 0.575,0.403 0.784,0.403 0.21,0 0.438,0.146 0.506,0.324 0.068,0.178 0.252,0.274 0.408,0.214 0.157,-0.06 0.331,0.013 0.388,0.162 0.057,0.149 0.382,0.332 0.723,0.406 0.34,0.075 0.618,0.205 0.618,0.289 0,0.166 0.98,0.699 1.31,0.714 0.111,0.004 0.316,0.16 0.454,0.345 0.139,0.186 0.525,0.397 0.857,0.47 0.333,0.073 0.605,0.212 0.605,0.309 0,0.097 0.396,0.351 0.881,0.566 0.485,0.214 0.944,0.491 1.02,0.614 0.192,0.311 0.576,0.284 0.399,-0.027 -0.079,-0.139 0.165,0.02 0.543,0.352 0.855,0.756 1.556,1.155 1.781,1.016 0.095,-0.058 0.225,0.03 0.289,0.197 0.064,0.167 0.186,0.293 0.273,0.28 0.346,-0.053 1.042,0.278 1.144,0.543 0.06,0.156 0.241,0.283 0.403,0.283 0.162,0 0.436,0.142 0.609,0.315 0.173,0.173 0.491,0.328 0.706,0.344 0.216,0.016 0.351,0.095 0.302,0.175 -0.05,0.08 0.116,0.209 0.367,0.287 0.251,0.078 0.706,0.317 1.011,0.532 0.305,0.215 0.554,0.332 0.554,0.262 0,-0.071 0.143,0.013 0.317,0.187 0.174,0.175 0.434,0.317 0.578,0.317 0.143,0 0.499,0.188 0.79,0.417 0.291,0.229 0.621,0.359 0.732,0.29 0.112,-0.069 0.205,-0.007 0.206,0.138 0.001,0.246 0.862,0.768 1.267,0.768 0.099,0 0.409,0.18 0.689,0.401 0.28,0.22 0.612,0.341 0.737,0.27 0.126,-0.072 0.162,-0.057 0.081,0.032 -0.081,0.089 0.509,0.495 1.311,0.901 0.801,0.405 1.707,0.902 2.012,1.102 0.305,0.201 0.556,0.286 0.557,0.19 0.002,-0.096 0.07,-0.079 0.152,0.037 0.209,0.298 1.458,1.154 1.458,0.999 0,-0.071 0.25,0.045 0.555,0.258 0.305,0.212 1.053,0.657 1.663,0.987 1.817,0.987 2.11,1.164 2.265,1.376 0.092,0.124 0.149,0.105 0.151,-0.051 0.002,-0.151 0.168,-0.087 0.414,0.159 0.226,0.226 0.498,0.356 0.605,0.29 0.107,-0.066 0.194,-0.022 0.194,0.098 0,0.12 0.249,0.327 0.554,0.461 0.305,0.134 0.6,0.291 0.656,0.349 0.276,0.287 1.469,0.798 1.63,0.699 0.101,-0.063 0.184,-0.026 0.184,0.081 0,0.108 0.703,0.578 1.563,1.046 0.859,0.467 1.721,0.988 1.915,1.158 0.194,0.17 0.353,0.248 0.353,0.174 0,-0.074 0.385,0.108 0.855,0.405 0.471,0.297 0.97,0.541 1.109,0.541 0.14,0 0.254,0.08 0.254,0.179 0,0.099 0.09,0.124 0.201,0.056 0.111,-0.069 0.202,-0.027 0.202,0.092 0,0.12 0.681,0.541 1.514,0.936 0.833,0.396 1.627,0.827 1.764,0.958 0.138,0.131 0.658,0.416 1.157,0.633 0.499,0.216 0.953,0.442 1.008,0.5 0.305,0.321 2.42,1.463 2.42,1.306 0,-0.066 0.142,0.023 0.316,0.197 0.175,0.175 0.435,0.317 0.578,0.317 0.144,0 0.5,0.188 0.792,0.418 0.292,0.23 0.531,0.37 0.531,0.312 0,-0.059 0.231,0.124 0.513,0.406 0.285,0.285 0.644,0.463 0.807,0.401 0.161,-0.062 0.293,-0.036 0.293,0.058 0,0.094 0.291,0.291 0.647,0.439 0.356,0.147 0.816,0.437 1.024,0.645 0.207,0.207 0.51,0.325 0.674,0.263 0.163,-0.063 0.25,-0.039 0.193,0.054 -0.112,0.181 1.862,1.173 2.154,1.082 0.097,-0.031 0.124,0.031 0.058,0.137 -0.113,0.183 0.629,0.546 0.946,0.462 0.083,-0.022 0.151,0.049 0.151,0.157 0,0.109 0.34,0.364 0.756,0.567 0.918,0.449 1.729,0.911 1.865,1.062 0.055,0.062 0.509,0.309 1.008,0.55 0.499,0.241 1.384,0.709 1.966,1.042 0.582,0.332 1.058,0.553 1.058,0.49 0,-0.062 0.279,0.122 0.621,0.409 0.341,0.287 0.7,0.522 0.797,0.522 0.098,0 0.639,0.272 1.203,0.605 0.564,0.333 1.158,0.605 1.32,0.605 0.161,0 0.293,0.071 0.293,0.158 0,0.234 1.132,0.861 1.282,0.71 0.071,-0.071 0.129,-0.018 0.129,0.118 0,0.136 0.082,0.197 0.181,0.136 0.099,-0.062 0.236,0.033 0.304,0.21 0.071,0.184 0.253,0.273 0.424,0.207 0.166,-0.063 0.301,-0.034 0.301,0.065 0,0.192 2.061,1.433 2.483,1.495 0.139,0.02 0.531,0.236 0.873,0.479 0.342,0.243 0.679,0.384 0.75,0.314 0.07,-0.071 0.128,-0.023 0.128,0.106 0,0.13 0.187,0.236 0.415,0.236 0.266,0 0.363,0.085 0.269,0.235 -0.098,0.159 -0.035,0.194 0.19,0.108 0.185,-0.071 0.336,-0.052 0.336,0.042 0,0.094 0.295,0.292 0.655,0.44 0.36,0.147 0.833,0.433 1.051,0.634 0.218,0.201 0.518,0.318 0.666,0.262 0.148,-0.057 0.214,-0.014 0.146,0.095 -0.11,0.18 0.156,0.287 0.556,0.224 0.083,-0.014 0.151,0.064 0.151,0.172 0,0.289 1.184,0.852 1.449,0.688 0.138,-0.085 0.171,-0.049 0.083,0.093 -0.092,0.148 0.012,0.232 0.283,0.232 0.235,0 0.371,0.091 0.302,0.202 -0.071,0.115 0.103,0.202 0.404,0.202 0.29,0 0.478,0.08 0.417,0.178 -0.102,0.166 0.598,0.498 0.944,0.448 0.083,-0.012 0.151,0.065 0.151,0.17 0,0.105 0.453,0.4 1.008,0.654 0.554,0.255 1.008,0.531 1.008,0.615 0,0.084 0.128,0.152 0.285,0.152 0.158,0 0.316,0.068 0.353,0.152 0.037,0.083 0.476,0.354 0.975,0.601 0.499,0.248 1.451,0.763 2.115,1.145 0.664,0.381 1.242,0.659 1.284,0.617 0.042,-0.042 0.209,0.057 0.371,0.219 0.162,0.162 0.392,0.234 0.511,0.16 0.119,-0.073 0.163,-0.047 0.098,0.059 -0.116,0.188 2.835,1.819 3.131,1.73 0.083,-0.025 0.151,0.037 0.151,0.138 0,0.101 0.408,0.381 0.906,0.622 0.499,0.242 0.958,0.522 1.02,0.623 0.063,0.102 0.29,0.184 0.505,0.184 0.216,0 0.392,0.073 0.392,0.162 0,0.181 1.831,1.142 2.066,1.085 0.083,-0.02 0.151,0.048 0.151,0.151 0,0.197 0.788,0.529 1.074,0.452 0.091,-0.025 0.113,0.041 0.047,0.147 -0.065,0.106 0.082,0.256 0.327,0.333 0.245,0.078 0.886,0.413 1.424,0.744 0.539,0.331 1.035,0.547 1.102,0.479 0.068,-0.067 0.245,0.051 0.393,0.263 0.148,0.211 0.678,0.541 1.177,0.731 0.5,0.191 0.908,0.425 0.908,0.521 0,0.096 0.181,0.174 0.403,0.174 0.222,0 0.403,0.096 0.403,0.214 0,0.117 0.091,0.157 0.202,0.089 0.111,-0.069 0.202,-0.039 0.202,0.066 0,0.104 0.334,0.349 0.742,0.542 0.408,0.194 1.184,0.613 1.723,0.931 0.539,0.318 1.112,0.578 1.273,0.578 0.162,0 0.295,0.068 0.295,0.151 0.001,0.083 0.277,0.308 0.615,0.5 0.357,0.203 0.553,0.245 0.47,0.101 -0.079,-0.137 0.076,-0.057 0.343,0.178 0.813,0.713 5.357,3.228 5.678,3.142 0.083,-0.022 0.151,0.048 0.151,0.155 0,0.108 0.151,0.138 0.335,0.067 0.226,-0.087 0.288,-0.052 0.19,0.107 -0.121,0.196 0.157,0.349 0.337,0.185 0.03,-0.027 0.259,0.141 0.51,0.374 0.419,0.391 2.512,1.517 2.766,1.489 0.061,-0.007 0.25,0.127 0.42,0.298 0.17,0.17 0.439,0.309 0.598,0.309 0.158,0 0.288,0.096 0.288,0.214 0,0.117 0.09,0.157 0.201,0.089 0.111,-0.069 0.202,-0.029 0.202,0.088 0,0.118 0.136,0.214 0.302,0.214 0.167,0 0.303,0.08 0.303,0.178 0,0.173 0.754,0.493 1.058,0.449 0.083,-0.012 0.151,0.074 0.151,0.191 0,0.118 0.083,0.163 0.185,0.1 0.101,-0.063 0.215,-0.033 0.252,0.067 0.037,0.099 0.566,0.451 1.176,0.781 0.61,0.33 1.449,0.803 1.865,1.05 0.416,0.247 0.756,0.392 0.756,0.321 0,-0.071 0.25,0.102 0.555,0.385 0.305,0.283 0.667,0.471 0.806,0.418 0.139,-0.053 0.252,-0.01 0.252,0.095 0,0.249 1.928,1.228 2.092,1.063 0.069,-0.069 0.126,-0.03 0.126,0.086 0,0.116 0.521,0.472 1.159,0.79 0.638,0.318 1.188,0.641 1.223,0.718 0.035,0.077 0.216,0.085 0.403,0.019 0.187,-0.067 0.272,-0.048 0.19,0.043 -0.185,0.203 0.584,0.772 0.835,0.618 0.099,-0.062 0.232,0.024 0.295,0.19 0.064,0.165 0.237,0.301 0.384,0.301 0.148,0 0.382,0.113 0.521,0.252 0.138,0.138 0.315,0.254 0.393,0.257 0.078,0.003 0.387,0.17 0.687,0.37 0.3,0.201 0.654,0.298 0.787,0.216 0.143,-0.089 0.189,-0.064 0.112,0.06 -0.117,0.189 0.548,0.534 0.924,0.48 0.083,-0.012 0.151,0.054 0.151,0.147 0,0.161 0.932,0.693 1.268,0.724 0.087,0.008 0.223,0.109 0.302,0.226 0.238,0.351 2.466,1.524 2.663,1.402 0.1,-0.062 0.282,0.073 0.404,0.301 0.122,0.228 0.319,0.355 0.436,0.283 0.118,-0.073 0.272,-0.048 0.343,0.054 0.199,0.29 2.165,1.444 2.58,1.515 0.204,0.035 0.482,0.2 0.617,0.366 0.135,0.166 0.248,0.231 0.252,0.143 0.003,-0.087 0.209,0.03 0.456,0.26 0.247,0.231 0.655,0.471 0.907,0.534 0.252,0.063 0.458,0.196 0.458,0.295 0,0.098 0.092,0.179 0.205,0.179 0.114,0 0.571,0.23 1.016,0.512 0.445,0.281 0.92,0.448 1.054,0.371 0.135,-0.078 0.179,-0.068 0.099,0.021 -0.137,0.152 0.955,0.85 1.504,0.961 0.139,0.028 0.344,0.155 0.456,0.282 0.111,0.128 0.406,0.293 0.656,0.367 l 0.453,0.135 V 314.573 189.198 l -1.31,-0.015 c -0.721,-0.008 -1.311,0.043 -1.311,0.114 0,0.071 -0.567,0.14 -1.26,0.154 -0.693,0.014 -1.713,0.082 -2.268,0.153 -0.554,0.07 -1.484,0.133 -2.066,0.14 -0.583,0.007 -1.059,0.072 -1.059,0.145 0,0.137 -0.365,0.161 -3.276,0.215 -0.97,0.018 -1.764,0.098 -1.764,0.176 0,0.079 -0.522,0.159 -1.159,0.178 -3.332,0.101 -3.881,0.137 -3.881,0.257 0,0.072 -0.341,0.135 -0.757,0.141 -0.696,0.008 -3.377,0.232 -3.377,0.282 0,0.012 -0.159,0.052 -0.353,0.09 -0.195,0.037 -0.314,0.002 -0.264,-0.078 0.049,-0.08 -0.472,-0.069 -1.158,0.026 -0.687,0.094 -1.725,0.163 -2.307,0.153 -0.582,-0.011 -1.059,0.054 -1.059,0.142 0,0.089 -0.703,0.176 -1.562,0.193 -1.812,0.035 -2.692,0.136 -3.033,0.347 -0.135,0.083 -0.243,0.049 -0.243,-0.076 0,-0.123 -0.096,-0.166 -0.213,-0.094 -0.116,0.072 -0.729,0.164 -1.36,0.204 -0.632,0.04 -1.421,0.121 -1.754,0.18 -0.333,0.059 -1.195,0.122 -1.915,0.141 -0.721,0.02 -1.442,0.135 -1.602,0.256 -0.22,0.167 -0.254,0.16 -0.139,-0.031 0.083,-0.139 0.055,-0.252 -0.062,-0.252 -0.117,0 -0.213,0.096 -0.213,0.213 0,0.118 -0.082,0.163 -0.182,0.102 -0.269,-0.167 -3.853,0.122 -3.742,0.302 0.121,0.196 -0.323,0.132 -0.694,-0.1 -0.179,-0.111 -0.237,-0.102 -0.158,0.026 0.077,0.126 -0.276,0.208 -0.927,0.216 -2.465,0.031 -3.348,0.122 -3.229,0.335 0.066,0.119 -0.002,0.103 -0.152,-0.036 -0.301,-0.279 -0.675,-0.344 -0.517,-0.09 0.095,0.154 -0.734,0.203 -3.672,0.219 -0.986,0.006 -1.241,0.066 -1.121,0.267 0.1,0.165 0.018,0.149 -0.223,-0.043 -0.209,-0.166 -0.322,-0.205 -0.251,-0.086 0.085,0.141 -0.267,0.233 -1.02,0.265 -2.023,0.087 -2.752,0.159 -3.165,0.313 -0.336,0.126 -0.353,0.111 -0.101,-0.089 0.254,-0.201 0.238,-0.218 -0.1,-0.105 -0.222,0.074 -0.903,0.176 -1.513,0.225 -0.609,0.05 -1.562,0.141 -2.117,0.203 -0.554,0.062 -1.507,0.142 -2.116,0.179 -4.334,0.259 -5.379,0.341 -5.646,0.442 -0.354,0.135 -2.058,0.273 -3.629,0.294 -0.61,0.008 -1.199,0.07 -1.31,0.138 -0.111,0.068 -0.655,0.139 -1.21,0.159 -0.554,0.019 -1.552,0.092 -2.218,0.161 -0.665,0.069 -2.253,0.177 -3.528,0.241 -1.275,0.064 -2.405,0.199 -2.51,0.299 -0.275,0.263 -0.564,0.227 -0.394,-0.049 0.093,-0.151 0.055,-0.178 -0.108,-0.077 -0.139,0.086 -0.72,0.193 -1.292,0.239 -2.114,0.169 -2.853,0.238 -2.853,0.267 0,0.016 -0.68,0.062 -1.512,0.101 -0.832,0.04 -1.966,0.128 -2.52,0.196 -0.555,0.069 -1.643,0.156 -2.42,0.195 -0.776,0.039 -1.411,0.088 -1.411,0.109 0,0.049 -1.277,0.171 -2.823,0.27 -0.665,0.042 -1.383,0.152 -1.595,0.245 -0.294,0.128 -0.347,0.104 -0.221,-0.1 0.115,-0.185 0.088,-0.219 -0.088,-0.11 -0.325,0.201 -1.806,0.353 -3.287,0.338 -0.638,-0.006 -1.159,0.061 -1.159,0.149 0,0.088 -0.477,0.175 -1.059,0.193 -1.948,0.061 -2.669,0.132 -2.909,0.287 -0.131,0.085 -0.296,0.061 -0.367,-0.053 -0.071,-0.115 -0.206,-0.161 -0.301,-0.102 -0.208,0.129 -2.834,0.337 -3.882,0.308 -0.416,-0.012 -0.757,0.073 -0.757,0.189 0,0.115 -0.096,0.21 -0.213,0.21 -0.117,0 -0.157,-0.091 -0.089,-0.202 0.069,-0.111 -0.022,-0.202 -0.202,-0.202 -0.179,0 -0.284,0.068 -0.232,0.152 0.051,0.083 -0.375,0.168 -0.946,0.19 -1.386,0.051 -2.943,0.216 -3.284,0.346 -0.151,0.058 -0.275,0.013 -0.275,-0.101 0,-0.114 -0.103,-0.144 -0.229,-0.066 -0.125,0.077 -0.692,0.167 -1.26,0.199 -0.567,0.031 -1.44,0.113 -1.939,0.18 -1.319,0.179 -4.412,0.382 -5.089,0.335 -0.332,-0.024 -0.355,-1.619 -0.403,-29.136 l -0.052,-29.111 0.705,-0.248 c 0.389,-0.137 0.88,-0.397 1.094,-0.577 0.213,-0.18 0.319,-0.212 0.237,-0.071 -0.092,0.156 0.113,0.112 0.519,-0.112 0.369,-0.202 1.17,-0.578 1.779,-0.834 0.61,-0.256 1.563,-0.671 2.117,-0.922 0.555,-0.252 1.297,-0.578 1.649,-0.726 0.353,-0.148 0.603,-0.33 0.557,-0.405 -0.046,-0.075 0.028,-0.132 0.166,-0.127 0.646,0.023 0.968,-0.072 0.856,-0.254 -0.069,-0.111 0.006,-0.149 0.169,-0.087 0.161,0.062 0.353,0.014 0.428,-0.106 0.074,-0.12 0.22,-0.166 0.324,-0.102 0.104,0.064 0.243,-0.024 0.309,-0.197 0.067,-0.173 0.186,-0.274 0.265,-0.225 0.08,0.049 0.379,-0.032 0.665,-0.181 0.287,-0.148 0.848,-0.378 1.248,-0.509 0.428,-0.142 0.672,-0.329 0.593,-0.457 -0.075,-0.122 -0.04,-0.158 0.081,-0.084 0.246,0.152 1.952,-0.53 2.158,-0.863 0.075,-0.122 0.221,-0.17 0.325,-0.106 0.103,0.064 0.187,0.023 0.187,-0.091 0,-0.114 0.136,-0.155 0.301,-0.092 0.172,0.066 0.354,-0.023 0.425,-0.208 0.068,-0.178 0.336,-0.323 0.594,-0.323 0.259,0 0.528,-0.092 0.598,-0.205 0.069,-0.113 0.204,-0.157 0.3,-0.097 0.096,0.059 0.231,0.015 0.3,-0.098 0.07,-0.113 0.303,-0.205 0.518,-0.205 0.216,0 0.392,-0.091 0.392,-0.201 0,-0.111 0.114,-0.202 0.255,-0.202 0.14,0 0.571,-0.168 0.957,-0.374 0.387,-0.205 1.043,-0.484 1.459,-0.62 0.416,-0.136 0.756,-0.336 0.756,-0.445 0,-0.109 0.091,-0.141 0.203,-0.072 0.112,0.069 0.497,-0.084 0.857,-0.34 0.36,-0.257 0.678,-0.439 0.708,-0.405 0.102,0.114 1.437,-0.437 1.36,-0.561 -0.042,-0.068 0.092,-0.136 0.297,-0.152 0.205,-0.015 0.865,-0.261 1.467,-0.546 0.602,-0.284 1.205,-0.517 1.339,-0.517 0.134,0 0.189,-0.09 0.121,-0.2 -0.068,-0.11 0.005,-0.15 0.164,-0.089 0.158,0.061 0.412,-0.015 0.565,-0.168 0.153,-0.153 0.369,-0.294 0.48,-0.315 0.805,-0.148 1.497,-0.502 1.38,-0.706 -0.074,-0.13 -0.067,-0.175 0.016,-0.101 0.182,0.163 1.358,-0.221 1.244,-0.407 -0.045,-0.072 0.156,-0.146 0.447,-0.163 0.291,-0.018 0.562,-0.132 0.603,-0.253 0.041,-0.122 0.157,-0.171 0.258,-0.108 0.102,0.063 0.185,0.013 0.185,-0.111 0,-0.124 0.094,-0.167 0.21,-0.096 0.116,0.072 0.352,0.013 0.524,-0.13 0.173,-0.143 0.419,-0.279 0.546,-0.3 0.499,-0.086 1.937,-0.827 1.824,-0.94 -0.066,-0.066 0.048,-0.076 0.254,-0.022 0.212,0.055 0.569,-0.085 0.826,-0.324 0.249,-0.232 0.453,-0.362 0.453,-0.29 0,0.073 0.238,-0.024 0.529,-0.215 0.29,-0.19 0.467,-0.247 0.392,-0.126 -0.085,0.138 -0.019,0.175 0.176,0.101 0.171,-0.066 0.253,-0.215 0.181,-0.332 -0.073,-0.118 -0.035,-0.152 0.087,-0.077 0.255,0.158 1.256,-0.256 1.256,-0.519 0,-0.1 0.081,-0.131 0.181,-0.069 0.1,0.062 0.713,-0.149 1.361,-0.468 0.649,-0.318 1.384,-0.642 1.633,-0.718 0.25,-0.077 0.454,-0.209 0.454,-0.294 0,-0.085 0.137,-0.154 0.304,-0.154 0.311,0 2.336,-0.875 2.518,-1.088 0.117,-0.136 0.908,-0.447 0.908,-0.356 0,0.033 0.317,-0.135 0.705,-0.374 0.388,-0.238 1.038,-0.495 1.444,-0.57 0.407,-0.076 0.919,-0.305 1.138,-0.509 0.22,-0.205 0.45,-0.322 0.512,-0.26 0.062,0.062 0.786,-0.215 1.609,-0.617 0.823,-0.401 1.577,-0.729 1.676,-0.729 0.1,0 0.519,-0.23 0.933,-0.511 0.414,-0.282 0.753,-0.468 0.753,-0.414 0,0.054 0.272,0.003 0.605,-0.113 0.332,-0.116 0.604,-0.29 0.604,-0.387 0,-0.096 0.151,-0.117 0.336,-0.047 0.243,0.094 0.29,0.056 0.17,-0.138 -0.107,-0.174 -0.087,-0.219 0.06,-0.128 0.221,0.137 0.833,-0.129 1.476,-0.64 0.181,-0.143 0.553,-0.302 0.829,-0.352 0.778,-0.141 2.371,-0.895 2.371,-1.122 0,-0.112 0.078,-0.156 0.174,-0.097 0.209,0.129 5.706,-2.23 5.891,-2.528 0.071,-0.116 0.187,-0.203 0.258,-0.194 0.51,0.069 0.739,-0.012 0.614,-0.215 -0.088,-0.141 -0.056,-0.178 0.08,-0.094 0.124,0.076 0.387,0.053 0.586,-0.052 0.777,-0.412 2.701,-1.234 2.887,-1.234 0.108,0 0.196,-0.106 0.196,-0.235 0,-0.13 0.056,-0.179 0.125,-0.11 0.069,0.069 0.591,-0.116 1.159,-0.41 0.569,-0.294 1.149,-0.512 1.289,-0.485 0.14,0.027 0.306,-0.086 0.37,-0.25 0.063,-0.165 0.243,-0.25 0.4,-0.19 0.157,0.061 0.286,0.01 0.286,-0.113 0,-0.123 0.068,-0.205 0.151,-0.182 0.323,0.087 1.635,-0.529 1.521,-0.714 -0.069,-0.111 -0.017,-0.131 0.12,-0.047 0.133,0.082 0.351,0.059 0.485,-0.052 0.19,-0.158 0.232,6.986 0.191,32.481 -0.038,24.476 0.007,32.737 0.181,32.896 0.17,0.156 0.189,0.136 0.069,-0.073 -0.123,-0.216 -0.076,-0.253 0.19,-0.151 0.402,0.155 3.947,-0.444 3.947,-0.666 0,-0.08 0.34,-0.123 0.756,-0.094 0.416,0.028 1.043,-0.069 1.395,-0.216 0.351,-0.146 0.696,-0.209 0.767,-0.138 0.07,0.07 0.212,-0.005 0.315,-0.168 0.104,-0.165 0.189,-0.194 0.191,-0.066 0.002,0.166 0.213,0.177 0.759,0.037 0.416,-0.106 1.164,-0.241 1.663,-0.3 0.499,-0.058 1.157,-0.227 1.462,-0.374 0.315,-0.153 0.555,-0.183 0.555,-0.071 0,0.109 0.074,0.152 0.165,0.096 0.232,-0.143 1.186,-0.338 2.254,-0.46 0.499,-0.057 1.155,-0.223 1.457,-0.369 0.303,-0.147 0.734,-0.219 0.958,-0.16 0.224,0.059 0.408,0.025 0.408,-0.074 0,-0.1 0.294,-0.188 0.655,-0.196 1.09,-0.025 1.764,-0.152 1.764,-0.333 0,-0.094 0.181,-0.114 0.401,-0.044 0.221,0.07 0.516,0.054 0.656,-0.035 0.139,-0.09 0.48,-0.176 0.757,-0.193 0.278,-0.017 0.527,-0.051 0.555,-0.077 0.028,-0.026 0.224,-0.058 0.437,-0.072 0.212,-0.014 0.452,-0.092 0.534,-0.173 0.081,-0.081 0.36,-0.094 0.621,-0.028 0.261,0.065 0.475,0.041 0.475,-0.054 10e-4,-0.096 0.428,-0.198 0.949,-0.229 0.521,-0.03 0.997,-0.121 1.058,-0.201 0.06,-0.081 0.484,-0.156 0.943,-0.167 0.458,-0.01 1.002,-0.089 1.209,-0.175 0.207,-0.086 0.603,-0.184 0.881,-0.218 2.042,-0.254 2.603,-0.36 2.529,-0.479 -0.083,-0.135 0.092,-0.164 1.553,-0.262 0.416,-0.028 0.757,-0.097 0.758,-0.154 10e-4,-0.057 0.42,-0.122 0.931,-0.146 0.511,-0.023 1.257,-0.15 1.658,-0.283 0.4,-0.132 1.025,-0.229 1.387,-0.215 0.363,0.013 0.659,-0.051 0.659,-0.143 0,-0.092 0.227,-0.124 0.505,-0.071 0.277,0.053 0.504,0.007 0.504,-0.101 0,-0.109 0.226,-0.173 0.504,-0.142 0.277,0.03 0.504,-0.012 0.504,-0.095 0,-0.083 0.204,-0.132 0.453,-0.111 0.25,0.022 0.543,-0.011 0.652,-0.074 0.223,-0.128 0.363,-0.152 1.906,-0.316 0.603,-0.064 1.147,-0.185 1.21,-0.269 0.062,-0.084 0.204,-0.155 0.315,-0.158 1.051,-0.024 3.111,-0.359 3.028,-0.493 -0.058,-0.094 0.075,-0.123 0.296,-0.065 0.634,0.165 0.612,3.171 0.558,-76.863 l -0.051,-76.418 -0.781,0.438"
         stroke="none"
         fill="#fbbc04"
         fill-rule="evenodd" /></g><path
       style="font-size:10.594px;line-height:0.98;font-family:'VCR OSD Mono';-inkscape-font-specification:'VCR OSD Mono';white-space:pre;inline-size:167.456;fill:#ffffff;stroke-width:1.2483;stroke-opacity:0;fill-opacity:1"
       d="m 24.315234,141.12145 h 2.069141 v -0.51728 h 0.517285 v -0.51211 h 1.03457 v 1.03457 h -0.517285 v 0.51211 H 26.90166 v 0.51728 h -3.103711 v -0.52245 h -0.517285 v -0.51729 h -0.517285 v -5.17285 h 0.517285 v -0.51729 h 0.517285 v -0.51728 h 3.103711 v 0.51728 h 0.517285 v 0.51729 h 0.517285 v 1.03457 h -1.03457 v -0.51729 h -0.517285 v -0.51728 h -2.069141 v 0.51728 h -0.517285 v 4.13829 h 0.517285 z m 5.690137,-5.17802 v 2.06914 h 2.586426 v -0.51728 h 0.517285 v -1.03458 h -0.517285 v -0.51728 z m 0.517285,3.10371 h -0.517285 v 3.10371 h -1.03457 v -7.24199 h 4.138281 v 0.51728 h 0.517285 v 0.51729 h 0.517285 v 2.06914 h -0.517285 v 0.51729 h -0.517285 v 0.51728 h -1.03457 v 0.51729 h 0.517285 v 0.51728 h 0.517285 v 0.51211 h 0.517285 v 0.52246 h 0.517285 v 1.03457 h -1.03457 v -0.52246 h -0.517285 v -0.51211 H 32.074512 V 140.599 h -0.517286 v -0.51729 h -0.517285 v -0.51728 h -0.517285 z m 9.828418,-4.13828 v 1.03457 h -4.138281 v 2.06914 h 3.103711 v 1.03457 h -3.103711 v 2.06914 h 4.138281 v 1.03457 h -5.172852 v -7.24199 z m 2.06914,4.13828 h 3.103711 v -1.55185 H 45.00664 V 136.978 h -0.517285 v -0.51729 h -1.034571 v 0.51729 h -0.517285 v 0.51729 h -0.517285 z m 0,3.10371 h -1.03457 V 136.978 h 0.517285 v -0.51729 h 0.517285 v -0.51728 h 0.517285 v -0.51729 h 0.517285 v -0.51728 h 1.034571 v 0.51728 h 0.517285 v 0.51729 h 0.517285 v 0.51728 h 0.517285 v 0.51729 h 0.517285 v 5.17285 h -1.03457 v -2.06914 h -3.103711 z m 7.241993,-6.20742 h -2.069141 v -1.03457 h 5.172852 v 1.03457 h -2.069141 v 6.20742 h -1.03457 z m 9.311133,-1.03457 v 1.03457 h -4.138281 v 2.06914 h 3.10371 v 1.03457 h -3.10371 v 2.06914 h 4.138281 v 1.03457 h -5.172852 v -7.24199 z m 9.828419,6.20742 v 1.03457 h -1.034571 v -1.03457 z m 11.38027,0.005 h 2.069141 v -0.51728 h 0.517285 v -0.51211 h 1.03457 v 1.03457 H 83.28574 v 0.51211 h -0.517285 v 0.51728 h -3.103711 v -0.52245 h -0.517285 v -0.51729 h -0.517286 v -5.17285 h 0.517286 v -0.51729 h 0.517285 v -0.51728 h 3.103711 v 0.51728 h 0.517285 v 0.51729 h 0.517285 v 1.03457 h -1.03457 v -0.51729 H 82.25117 v -0.51728 h -2.069141 v 0.51728 h -0.517285 v 4.13829 h 0.517285 z m 8.276565,-5.17802 h -2.069141 v 0.51728 h -0.517285 v 4.13829 h 0.517285 v 0.51728 h 2.074314 v -0.51211 h 0.512112 v -4.14346 h -0.517285 z m -2.586426,-0.51729 v -0.51728 h 3.103711 v 0.51728 h 0.517285 v 0.51729 h 0.517285 v 5.17285 h -0.512112 v 0.52246 h -0.522458 v 0.51211 h -3.103711 v -0.51728 h -0.517285 v -0.51729 h -0.517285 v -5.17285 h 0.517285 v -0.51729 z m 6.20742,0.51729 v 5.17285 h 2.069141 v 0.005 h 0.517285 V 140.599 h 0.517285 v -4.13829 h -0.517285 v -0.51728 z m -1.03457,6.20225 v -7.24199 h 4.133108 v 0.51728 h 0.522458 v 0.51729 h 0.517285 v 5.17285 h -0.517285 v 0.51728 h -0.517285 v 0.52246 h -1.03457 v -0.005 z m 11.380272,-7.23682 v 1.03457 h -4.138281 v 2.06914 h 3.103711 v 1.03457 h -3.103711 v 2.06914 h 4.138281 v 1.03457 h -5.172852 v -7.24199 z m 9.82842,6.20742 v 1.03457 h -1.03457 v -1.03457 z m 10.86299,1.03457 v -1.03457 h 1.03457 v -5.17285 h -1.03457 v -1.03457 h 3.10371 v 1.03457 h -1.03457 v 5.17285 h 1.03457 v 1.03457 z m 6.20742,-4.13828 v 4.13828 h -1.03457 v -7.24199 h 1.03457 v 1.54668 h 0.51728 v 0.52246 h 0.51729 v 0.51729 h 0.51728 v 0.51728 h 0.51729 v 0.51729 h 0.51728 v 0.51728 h 0.51729 v -4.13828 h 1.03457 v 7.24199 h -1.03457 V 140.599 h -0.51729 v -0.51729 h -0.51728 v -0.51728 h -0.51729 v -0.51729 h -0.51728 v -0.51728 h -0.51729 v -0.51729 z m 6.20742,0 v 4.13828 h -1.03457 v -7.24199 h 1.03457 v 1.54668 h 0.51728 v 0.52246 h 0.51729 v 0.51729 h 0.51728 v 0.51728 h 0.51729 v 0.51729 h 0.51728 v 0.51728 h 0.51729 v -4.13828 h 1.03457 v 7.24199 h -1.03457 V 140.599 h -0.51729 v -0.51729 h -0.51728 v -0.51728 h -0.51729 v -0.51729 h -0.51728 v -0.51728 h -0.51729 v -0.51729 z m 8.79385,-2.06914 h -2.06914 v 0.51728 h -0.51728 v 4.13829 h 0.51728 v 0.51728 h 2.07431 v -0.51211 h 0.51212 v -4.14346 h -0.51729 z m -2.58642,-0.51729 v -0.51728 h 3.10371 v 0.51728 h 0.51728 v 0.51729 h 0.51729 v 5.17285 h -0.51211 v 0.52246 h -0.52246 v 0.51211 h -3.10371 v -0.51728 h -0.51729 v -0.51729 h -0.51728 v -5.17285 h 0.51728 v -0.51729 z m 5.69013,4.65557 h -0.51728 v -5.17285 h 1.03457 v 4.65557 h 0.51728 v 0.51728 h 0.51729 v 0.51729 h 1.03457 v -0.50694 h 0.51728 v -0.52763 h 0.51729 v -4.65557 h 1.03457 v 5.17285 h -0.51729 v 0.51729 h -0.51728 v 0.52763 h -0.51729 v 0.50694 h -0.51728 v 0.51728 h -1.03457 v -0.51728 h -0.51729 v -0.51729 h -0.51728 V 140.599 h -0.51729 z m 6.7247,-1.03457 h 3.10371 v -1.55185 h -0.51728 V 136.978 h -0.51729 v -0.51729 h -1.03457 v 0.51729 h -0.51729 v 0.51729 h -0.51728 z m 0,3.10371 h -1.03457 V 136.978 h 0.51728 v -0.51729 h 0.51729 v -0.51728 h 0.51728 v -0.51729 h 0.51729 v -0.51728 h 1.03457 v 0.51728 h 0.51729 v 0.51729 h 0.51728 v 0.51728 h 0.51729 v 0.51729 h 0.51728 v 5.17285 h -1.03457 v -2.06914 h -3.10371 z m 7.242,-6.20742 h -2.06914 v -1.03457 h 5.17285 v 1.03457 h -2.06914 v 6.20742 h -1.03457 z m 9.31114,-1.03457 v 1.03457 h -4.13828 v 2.06914 h 3.10371 v 1.03457 h -3.10371 v 2.06914 h 4.13828 v 1.03457 h -5.17285 v -7.24199 z"
       id="text6"
       transform="matrix(1.1987873,0,0,1.1987873,31.033223,-22.276272)"
       aria-label="CREATE . CODE . INNOVATE" /></g></svg>
